<svg id="Layer_1" data-name="Layer 1" xmlns="http://www.w3.org/2000/svg" viewBox="0 0 453.2 571.4"><defs><style>.cls-1{fill:#231f20;}</style></defs><title>Ivan-crest-export-v6</title><path class="cls-1" d="M136.2,47.3l-2.6,1.5c-.1.1-.2.2-.1.3l13.7,23.1h.4l2.5-1.5c.2-.1.2-.2.1-.3l-13.7-23C136.4,47.2,136.3,47.2,136.2,47.3Z"/><path class="cls-1" d="M165.9,33.1c-.1,0-.2-.1-.3,0l-2.5,1.1c-.2,0-.2.2-.2.3l1.7,22.3L149.5,40.3h-.4l-2.5,1.1-.2.3a.4.4,0,0,0,.1.3l19,20.7c.1.2.2.2.4.1l2.2-.9c.2-.1.2-.2.2-.4l-2.2-28C166.1,33.3,166,33.2,165.9,33.1Z"/><path class="cls-1" d="M186.6,27.4h-.3l-2.5.6c-.1.1-.2.1-.2.2l-4.7,28.7c0,.1,0,.2.1.2s.1.1.2.1l3-.7c.1,0,.1-.1.1-.2L184.2,45l9.4-2.2,6.6,9.2h.3l3-.7c.1,0,.1-.1.1-.2s.1-.1,0-.2Zm-1.8,14,1.4-8.8,5.3,7.2Z"/><path class="cls-1" d="M228.6,22.6h-2.8c-.2.1-.2.1-.2.3l.8,19.4L210.9,23.5c0-.1-.1-.1-.2-.1h-1.2c-.2,0-.3.1-.2.3l1.1,26.8a.2.2,0,0,0,.2.2h2.8a.3.3,0,0,0,.3-.3l-.8-19.2,15.3,18.8h1.6a.2.2,0,0,0,.2-.2l-1.1-26.8A.3.3,0,0,0,228.6,22.6Z"/><path class="cls-1" d="M266.8,24.5l-9.9-1.2c-.2,0-.3,0-.3.2l-3.4,26.6a.2.2,0,0,0,.2.2l3,.4c.1,0,.2,0,.3-.2L258.1,39l4.7.6h0L267.6,52c.1.1.1.2.2.2l3.4.4c.1,0,.2,0,.2-.1s.1-.1.1-.2l-4.9-12.4a7.8,7.8,0,0,0,4.5-2.1,7.4,7.4,0,0,0,2.4-4.4,7.6,7.6,0,0,0-1.5-5.8A7.3,7.3,0,0,0,266.8,24.5Zm1.7,11.1a4.6,4.6,0,0,1-3.2.9l-6.8-.9,1.1-8.5,6.8.9a4,4,0,0,1,2.8,1.6,4.2,4.2,0,0,1-.7,6Z"/><path class="cls-1" d="M297.7,31.6l-2.5-.8h-.3L276.2,53.1v.2a.2.2,0,0,0,.2.2l2.9.9c.1.1.2,0,.2-.1l7.4-8.7,9.2,3,1,11.3c0,.1,0,.2.1.2l2.9,1h.3c.1,0,.1-.1.1-.2l-2.5-29C297.9,31.7,297.8,31.7,297.7,31.6Zm-8.6,11.3,5.8-6.8.8,8.9Z"/><path class="cls-1" d="M334,48h-.4l-9.3,17L320.9,41c-.1-.1-.1-.2-.2-.2l-1.1-.6c-.1-.1-.2-.1-.3.1L306.4,63.8c-.1.1-.1.2.1.3l2.5,1.4c.1.1.2,0,.3-.1l9.3-16.9,3.4,24c0,.1,0,.2.1.2l1.2.6c.1.1.2.1.3-.1l12.9-23.5c.1-.1.1-.2-.1-.3Z"/><path class="cls-1" d="M57.8,421.5c0,.2.1.3.3.2l2.7-.7c.1-.1.2-.2.1-.3l-2.6-9.4,7.7-2.1,3.3,12.1c.1.1.2.2.3.1l2.7-.7c.2,0,.2-.1.2-.3l-4.2-15c0-.2-.1-.2-.3-.2L43.7,412c-.2,0-.2.1-.2.2l.8,2.8c0,.1.1.2.3.1l10.6-2.9Z"/><path class="cls-1" d="M81.5,441.4a.4.4,0,0,0,.1-.3l-1.2-2.6h-.3l-14.7,6.8a5.9,5.9,0,0,1-4.7.2,5.7,5.7,0,0,1-3.3-3.3,5.1,5.1,0,0,1,0-4.5,5.9,5.9,0,0,1,3.1-3.3l14.6-6.7c.1-.1.2-.2.1-.3L74,424.7h-.3l-14.5,6.8a8.6,8.6,0,0,0-4.9,5.3,8.1,8.1,0,0,0,.3,7.1,8.8,8.8,0,0,0,5.1,4.7,9.4,9.4,0,0,0,7-.3Z"/><path class="cls-1" d="M87.1,450.4c.2,0,.2-.1.1-.3l-1.6-2.3c-.1-.1-.2-.2-.3-.1L64.4,461.8c-.2.1-.2.2-.1.3l8,11.9a.2.2,0,0,0,.3,0l2.3-1.5c.2-.1.2-.2.1-.4l-6.3-9.3Z"/><path class="cls-1" d="M97,464.1,78.2,481a.2.2,0,0,0,0,.3l9.5,10.6a.3.3,0,0,0,.4,0l2.1-1.8a.3.3,0,0,0,0-.4l-7.5-8.3,16.5-14.9a.2.2,0,0,0,0-.3l-1.9-2.1A.2.2,0,0,0,97,464.1Z"/><path class="cls-1" d="M109.1,491.8l-6.5-5.7a.2.2,0,0,0-.3,0l-1.7,2a.2.2,0,0,0,0,.3l6.5,5.7h.3l1.7-2A.2.2,0,0,0,109.1,491.8Z"/><path class="cls-1" d="M131.4,496.6a11.1,11.1,0,0,0-.7-1.6,11.3,11.3,0,0,0-3.3-3.6,8.5,8.5,0,0,0-5.6-1.7,5.8,5.8,0,0,0-4.3,2.8,5.7,5.7,0,0,0-.8,5.1,13.6,13.6,0,0,0,.9,2.3l.6,1,.3.4.2.4.5.9h0a13.5,13.5,0,0,1,1.9,3.9,3,3,0,0,1-.4,2.8c-1.4,2.2-3.6,2.3-6.4.4a11.6,11.6,0,0,1-2.6-2.8,6.1,6.1,0,0,1-.5-1.2,1.7,1.7,0,0,1-.2-.5c0-.1-.1-.2-.1-.3s-.1-.2-.3-.2l-2.7.4c-.2,0-.3.1-.2.3a.6.6,0,0,0,.1.4,6.4,6.4,0,0,0,.2.7,14.2,14.2,0,0,0,.8,1.8,10.9,10.9,0,0,0,3.7,4,8.9,8.9,0,0,0,6.1,1.9,6.3,6.3,0,0,0,4.8-3,7.1,7.1,0,0,0,.9-5.7,17.4,17.4,0,0,0-1.1-2.5l-.6-1.1-.3-.5-.3-.5-.5-.8h0a17.3,17.3,0,0,1-1.7-3.3,2.9,2.9,0,0,1,.4-2.4c1.2-1.8,3-1.8,5.3-.2a6.4,6.4,0,0,1,2.2,2.4,3.1,3.1,0,0,1,.5,1c.1.1.1.3.2.4a.4.4,0,0,0,.1.3.2.2,0,0,0,.2.2l1.4-.3,1.4-.2c.2,0,.2-.1.2-.3s-.1-.2-.1-.4S131.5,496.8,131.4,496.6Z"/><path class="cls-1" d="M151.6,508.4l1.3-2.5c0-.1,0-.2-.2-.3l-14.9-7.4c-.2-.1-.3-.1-.3.1l-1.3,2.5c-.1.1,0,.2.1.3l6,3-9.8,19.8c-.1.2-.1.3.1.4l2.5,1.2c.1.1.2,0,.3-.1l9.9-19.9,6,3C151.4,508.6,151.5,508.6,151.6,508.4Z"/><path class="cls-1" d="M167.7,510.8l-2.4-.7a.2.2,0,0,0-.3,0L147.3,531v.2a.2.2,0,0,0,.2.2l2.7.9h.2l7-8.2,8.6,2.8.9,10.7c0,.1.1.1.2.2l2.7.8a.1.1,0,0,0,.2,0c.1-.1.1-.1.1-.2L167.8,511C167.8,510.9,167.8,510.8,167.7,510.8Zm-8.1,10.6L165,515l.7,8.4Z"/><path class="cls-1" d="M192.7,516.5a11.6,11.6,0,0,0-8.6,2.6,12.5,12.5,0,0,0-2.8,17.5,13.7,13.7,0,0,0,3.6,3.6,14.3,14.3,0,0,0,5,1.8,12.7,12.7,0,0,0,7.2-1c.2-.1.2-.2.1-.3l-1.2-2.5c0-.2-.1-.2-.3-.2a9.7,9.7,0,0,1-5.3.8,8.9,8.9,0,0,1-6.3-3.9,9.2,9.2,0,0,1-1.8-7.2,9,9,0,0,1,3.6-5.9,9.2,9.2,0,0,1,6.6-2.1,9.8,9.8,0,0,1,5.6,2.4.2.2,0,0,0,.3,0l1.9-2.1c.2-.1.1-.2,0-.3A12.4,12.4,0,0,0,192.7,516.5Z"/><path class="cls-1" d="M210.6,530.6l12.6-12.1a.4.4,0,0,0,.1-.3h-4.2c-.1,0-.2,0-.2.1l-9.9,9.5.2-9.6c0-.1-.1-.2-.3-.2h-2.8c-.1,0-.2.1-.2.3l-.5,25.2c0,.2.1.2.2.2h2.8c.2,0,.3-.1.3-.2l.2-9.8,10.4,10.1c0,.1,0,.1.1.1h4.1a.2.2,0,0,0,.2-.2c.1,0,.1-.1,0-.2Z"/><path class="cls-1" d="M248.3,517.8l-8.1.3c-.1.1-.2.1-.2.3l.9,25.2a.3.3,0,0,0,.3.3l7.9-.3a13.4,13.4,0,0,0,9-4,12.1,12.1,0,0,0,3.6-9.1,12.4,12.4,0,0,0-4-9.1A12.6,12.6,0,0,0,248.3,517.8Zm7.6,19.4a9.2,9.2,0,0,1-6.7,3.1l-5.1.2-.7-19.2,5.1-.2a9.1,9.1,0,0,1,6.8,2.6,9,9,0,0,1,3.1,6.6A9.1,9.1,0,0,1,255.9,537.2Z"/><path class="cls-1" d="M288.6,535.4l-13.4,2.5-1.5-7.8,9.8-1.8c.1,0,.2-.1.1-.3l-.5-2.7c0-.2-.1-.2-.2-.2l-9.8,1.8-1.4-7.8,13.4-2.5c.2,0,.2-.1.2-.3l-.5-2.7c-.1-.2-.1-.2-.3-.2l-16.4,3.1a.2.2,0,0,0-.2.2l4.7,24.8c0,.2.1.2.2.2l16.4-3.1c.2,0,.2-.1.2-.2l-.5-2.8C288.9,535.5,288.8,535.4,288.6,535.4Z"/><path class="cls-1" d="M307.1,506.2l-2.4.8c-.1,0-.2.1-.2.3l-.3,21-12.7-16.7c-.1-.1-.2-.2-.4-.1l-2.4.8a.2.2,0,0,0-.2.2.2.2,0,0,0,0,.3l16,21a.4.4,0,0,0,.4.2l2.2-.8c.1,0,.2-.1.2-.3l.3-26.4a.4.4,0,0,0-.1-.3Z"/><path class="cls-1" d="M335.8,517.2l-12.2,5.9-3.5-7.1,8.9-4.3a.4.4,0,0,0,.1-.3l-1.3-2.6c0-.1-.1-.1-.3-.1l-8.8,4.4-3.5-7.2,12.2-6c.2,0,.2-.1.1-.3l-1.2-2.5c-.1-.1-.2-.2-.3-.1l-15,7.3c-.1.1-.2.2-.1.4L322,527.3c0,.1.1.2.3.1l15-7.3a.4.4,0,0,0,.1-.3l-1.3-2.5C336.1,517.1,336,517.1,335.8,517.2Z"/><path class="cls-1" d="M355.5,504.5l-9.3,6.2-12.3-18.4c-.1-.2-.2-.2-.3-.1l-2.4,1.6c-.1,0-.1.1-.1.3l14,21h.3l11.9-7.9c.2-.1.2-.2.1-.4l-1.6-2.3C355.7,504.5,355.6,504.4,355.5,504.5Z"/><path class="cls-1" d="M365,471.8a12.3,12.3,0,0,0-9.3,3.4,12.4,12.4,0,0,0-4.1,8.9,12.6,12.6,0,0,0,3.4,9.2,12.9,12.9,0,0,0,18.2.7,12.4,12.4,0,0,0,4.1-8.9,12.6,12.6,0,0,0-3.4-9.2A12.2,12.2,0,0,0,365,471.8Zm5.9,19.8a9.1,9.1,0,0,1-6.8,2.6,9.8,9.8,0,0,1-6.7-3.1,9.5,9.5,0,0,1-2.5-6.9,9,9,0,0,1,3.1-6.6,9.1,9.1,0,0,1,6.8-2.6,9.8,9.8,0,0,1,6.7,3.1A9.2,9.2,0,0,1,374,485,9,9,0,0,1,370.9,491.6Z"/><path class="cls-1" d="M382.9,467.6l3.8-5.1a6.9,6.9,0,0,0,1.5-5.3,6.8,6.8,0,0,0-2.6-4.9,7.3,7.3,0,0,0-5.5-1.6,7.2,7.2,0,0,0-5,2.9l-5.7,7.5c-.1.2-.1.3.1.4l20.1,15.2a.2.2,0,0,0,.3,0l1.7-2.3a.2.2,0,0,0,0-.3Zm-9-6.9,3.9-5.1a3.5,3.5,0,0,1,2.6-1.6,3.7,3.7,0,0,1,3,.8,3.8,3.8,0,0,1,1.6,2.6,4.1,4.1,0,0,1-.8,3l-3.9,5.2Z"/><path class="cls-1" d="M410.7,438.2h-.3L404,450.3l-7-3.7,4.6-8.8c.1-.1.1-.2-.1-.3l-2.4-1.3c-.2-.1-.3,0-.3.1l-4.7,8.7-7-3.7,6.4-12c.1-.2,0-.3-.1-.4l-2.5-1.3h-.3l-7.8,14.8c-.1.1,0,.2.1.3l22.3,11.8c.1.1.2.1.3-.1l7.8-14.7c.1-.2,0-.3-.1-.3Z"/><path class="cls-1" d="M422.3,413.9,410,416.1a7.2,7.2,0,0,0-1.1-4.5,6.6,6.6,0,0,0-3.6-3,7.5,7.5,0,0,0-5.7.2,7.3,7.3,0,0,0-3.8,4.3l-2.9,9c-.1.1,0,.2.1.3l23.9,7.9c.2.1.3,0,.3-.1l.9-2.7c0-.1,0-.2-.2-.3l-10.2-3.4,1.3-4.2h.1l12.3-2.2c.1,0,.1-.1.2-.2l1-3c0-.1,0-.2-.1-.2S422.4,413.9,422.3,413.9Zm-15.7,2.8-2,6.1-7.7-2.6,2-6a4.2,4.2,0,0,1,2.1-2.4,4,4,0,0,1,5.3,1.8A4.2,4.2,0,0,1,406.6,416.7Z"/><path class="cls-1" d="M120.4,183h.2l2.7-6.1a4.8,4.8,0,0,0,.1-3.9,5.1,5.1,0,0,0-2.7-2.9,5.8,5.8,0,0,0-2.6-.5,5.4,5.4,0,0,0-2.5.9,4.4,4.4,0,0,0-2.6-2.6,4.3,4.3,0,0,0-3.5,0,4.1,4.1,0,0,0-2.6,2.4l-2.5,5.7c0,.1,0,.2.1.2Zm-4.6-9.5a3.1,3.1,0,0,1,1.6-1.6,3,3,0,0,1,2.3.1,2.5,2.5,0,0,1,1.6,1.6,2.8,2.8,0,0,1,0,2.2l-1.9,4.4-5.4-2.4Zm-6.8-2.4a2.1,2.1,0,0,1,1.3-1.3,3.1,3.1,0,0,1,1.9,0,2.7,2.7,0,0,1,1.4,1.4,3.1,3.1,0,0,1,0,1.9l-1.7,3.8-4.6-2Z"/><path class="cls-1" d="M122.3,163.9a6.5,6.5,0,0,0,4.9.9,5.7,5.7,0,0,0,3.9-2.8,6,6,0,0,0,.7-4.7,5.9,5.9,0,0,0-2.9-3.8l-9.5-5.9h-.2l-1,1.6a.4.4,0,0,0,.1.3l9.5,5.8a4,4,0,0,1,1.3,5.7,3.9,3.9,0,0,1-2.6,1.7,4,4,0,0,1-3-.6l-9.4-5.8c-.1-.1-.2-.1-.2,0l-1,1.6c-.1.1-.1.2,0,.2Z"/><path class="cls-1" d="M137.9,151.9h.2l1.1-1.5c.1-.1.1-.2,0-.2l-13.7-10.7h-.2l-1.2,1.4a.4.4,0,0,0,.1.3Z"/><path class="cls-1" d="M143.2,145.2a.2.2,0,0,0,.3,0l6.6-6.9a.4.4,0,0,0-.1-.3l-1.4-1.3h-.2l-5.2,5.5-11-10.5h-.3l-1.3,1.4v.2Z"/><path class="cls-1" d="M153.6,134.9l4.1-3.3a8.4,8.4,0,0,0,3.3-5.8,9,9,0,0,0-7.6-9.9,8.4,8.4,0,0,0-6.5,1.8l-4.3,3.4c-.1,0-.1.1,0,.2l10.8,13.6Zm-5.3-15.5a6.2,6.2,0,0,1,4.7-1.3,6.7,6.7,0,0,1,3.5,11.7l-2.7,2.1-8.2-10.4Z"/><path class="cls-1" d="M169.5,123.2l1.6-1c.1,0,.1-.1.1-.2l-9.1-14.8c-.1-.1-.1-.1-.2,0l-1.6,1c-.1,0-.1.1-.1.2l9.1,14.8Z"/><path class="cls-1" d="M176.7,118.9l1.7-.8c.1,0,.1-.1,0-.2l-5.2-11.3,13.6,7.5h.1l.8-.3a.4.4,0,0,0,.1-.3l-7.3-15.7h-.2l-1.6.8c-.1,0-.2.1-.1.2l5.3,11.4-13.8-7.6H170l-.7.3v.2l7.3,15.8Z"/><path class="cls-1" d="M191.5,106.3a10.1,10.1,0,0,0,2.7,2.4,10.4,10.4,0,0,0,3.4,1.1,8.9,8.9,0,0,0,3.6-.4,8.2,8.2,0,0,0,4.8-4.2l.2-.2h0l-1.6-5.8h-.2l-4.7,1.3v.2l.5,1.9h.2l2.7-.8.8,2.9a6.3,6.3,0,0,1-3.6,2.8,6.2,6.2,0,0,1-5.1-.8,6.7,6.7,0,0,1-2.3-8.9,5.7,5.7,0,0,1,3.6-2.9,6.1,6.1,0,0,1,5.1.5h.2l.9-1.6a.1.1,0,0,0,0-.2,8.4,8.4,0,0,0-11.6,3,8.7,8.7,0,0,0-1,6.5A9.5,9.5,0,0,0,191.5,106.3Z"/><path class="cls-1" d="M218.4,90.5l4.6-.3.9,15.2.2.2,1.9-.2c.1,0,.1,0,.1-.1l-1-15.2,4.6-.3c.1,0,.1-.1.1-.2V87.7a.2.2,0,0,0-.2-.2l-11.2.7c-.1,0-.2.1-.1.2v1.9C218.3,90.4,218.3,90.5,218.4,90.5Z"/><path class="cls-1" d="M237.3,105.2a.2.2,0,0,0,.2-.2l.3-7.5,8.1.4-.4,7.5.2.2h1.9c.1,0,.1-.1.1-.2l.8-17.3c0-.1,0-.2-.1-.2h-1.9l-.2.2-.3,7.5-8.1-.4.4-7.5a.2.2,0,0,0-.2-.2h-1.8c-.2,0-.2.1-.2.2l-.8,17.3c0,.1,0,.2.1.2Z"/><path class="cls-1" d="M256,106.9c.1,0,.1,0,.1-.1l2.8-17.2h-.2l-1.8-.3c-.1-.1-.2,0-.2.1L254,106.4c-.1.1,0,.2.1.2Z"/><path class="cls-1" d="M264.1,108.5h.2l3.5-12,5.4,14.6h.1l.8.2h.2L279,94.5c0-.1,0-.2-.1-.2l-1.7-.5c-.1,0-.2,0-.2.1L273.6,106l-5.5-14.7H268l-.7-.2h-.2l-4.8,16.7c0,.1,0,.2.1.2Z"/><path class="cls-1" d="M284,114.7a6.9,6.9,0,0,0,3,2.1,8.3,8.3,0,0,0,6.4.1h.3l2.6-5.3c0-.1,0-.2-.1-.2l-4.4-2.1h-.2l-.8,1.8c-.1.1,0,.1.1.2l2.5,1.2-1.3,2.7a6.2,6.2,0,0,1-4.6-.4,6.4,6.4,0,0,1-3.3-3.9,6.7,6.7,0,0,1,.6-5.2,6.6,6.6,0,0,1,3.6-3,6.5,6.5,0,0,1,8.1,3.9h.2l1.8-.6c.1,0,.1-.1.1-.2a8.1,8.1,0,0,0-4.3-4.9,7.9,7.9,0,0,0-6.4-.4,8.5,8.5,0,0,0-5.1,4.2,9.4,9.4,0,0,0-.6,7.1A8.3,8.3,0,0,0,284,114.7Z"/><path class="cls-1" d="M297.4,120.1v.3c.1.1.1.3.2.5a6.1,6.1,0,0,0,.5,1.2,7.2,7.2,0,0,0,2.5,2.7,6.1,6.1,0,0,0,4.1,1.3A5,5,0,0,0,308,124a4.9,4.9,0,0,0,.6-3.9c-.2-.5-.4-1.1-.7-1.7l-.4-.8-.2-.3-.2-.3-.3-.6h0a7.6,7.6,0,0,1-1.1-2.3,1.8,1.8,0,0,1,.2-1.6c.9-1.2,2.1-1.3,3.7-.2a4.3,4.3,0,0,1,1.4,1.6,1.6,1.6,0,0,1,.4.7.4.4,0,0,0,.1.3v.2c0,.1.1.1.2.1l.9-.2h1c.1,0,.1-.1.1-.2a.4.4,0,0,0-.1-.3c0-.1-.1-.3-.1-.4a3.7,3.7,0,0,0-.5-1.1,6.5,6.5,0,0,0-2.2-2.5,6.1,6.1,0,0,0-3.7-1.1,4.5,4.5,0,0,0-3,1.9,4.3,4.3,0,0,0-.6,3.5l.6,1.6a1.6,1.6,0,0,1,.4.7l.2.3.2.2.3.6h0a10.6,10.6,0,0,1,1.3,2.7,2.5,2.5,0,0,1-.4,1.9c-1,1.5-2.4,1.6-4.3.3a6.1,6.1,0,0,1-1.7-1.9l-.4-.9c0-.1-.1-.2-.1-.3v-.2h-.2l-1.9.3C297.4,119.9,297.3,120,297.4,120.1Z"/><path class="cls-1" d="M317,138.3l5.4-5.1,2,2.2h0l-2.7,8.1c-.1,0,0,.1,0,.1l1.5,1.6s.1.1.1,0h.1l2.8-8.1a4.7,4.7,0,0,0,3.1.8,4.5,4.5,0,0,0,2.9-1.2,4.8,4.8,0,0,0,1.8-3.5,4.7,4.7,0,0,0-1.3-3.6l-4.4-4.6c0-.1-.1-.1-.2-.1l-12.6,11.9c-.1,0-.1.1,0,.2l1.2,1.4Zm11.1-10.4L331,131a3,3,0,0,1,.8,2,3.4,3.4,0,0,1-.9,1.9,2.5,2.5,0,0,1-2,.7,2.6,2.6,0,0,1-1.9-.8l-2.9-3.2Z"/><path class="cls-1" d="M326.3,149.4l1.2,1.6h.2l13.9-10.4c.1-.1.1-.2,0-.2l-1.1-1.5h-.2l-13.9,10.4Z"/><path class="cls-1" d="M335.9,152.9a7.4,7.4,0,0,0-1.6,3.2,8.2,8.2,0,0,0-.3,3.5,8.3,8.3,0,0,0,1.3,3.4,8.5,8.5,0,0,0,5.3,3.7h.3l5.2-3c.1,0,.1-.1,0-.2l-2.4-4.2h-.2l-1.7,1c-.1.1-.1.1,0,.2l1.4,2.5-2.6,1.5a6.1,6.1,0,0,1-3.6-2.9,6.1,6.1,0,0,1-.5-5.1,6.2,6.2,0,0,1,3.4-4,6.4,6.4,0,0,1,4.7-.4,6,6,0,0,1,3.7,2.7,5.9,5.9,0,0,1,.7,5c0,.1,0,.2.1.2l1.9.5c.1.1.2,0,.2-.1a8.4,8.4,0,0,0-.8-6.4,7.9,7.9,0,0,0-5.1-4,8.2,8.2,0,0,0-6.5.6A8.5,8.5,0,0,0,335.9,152.9Z"/><path class="cls-1" d="M340.7,173.3l.7,1.7c0,.1.1.2.2.1l7-2.8,3,7.6-7.1,2.7c-.1.1-.1.1-.1.2l.7,1.8h.2l16.2-6.4c.1,0,.1-.1,0-.2l-.6-1.7c-.1-.1-.1-.2-.2-.1l-7,2.7-3-7.5,7-2.7c.1-.1.2-.1.1-.2l-.7-1.8c0-.1-.1-.1-.2-.1l-16.1,6.4C340.7,173.1,340.7,173.2,340.7,173.3Z"/><path class="cls-1" d="M347.9,193.9c-.1,0-.1.1-.1.2l.5,1.8h.2l14.8-3.7,1.1,4.3c0,.1.1.2.2.1l1.8-.4c.1-.1.2-.1.1-.2l-2.7-10.9c0-.1-.1-.2-.2-.1l-1.9.4v.2l1.1,4.4Z"/><path class="cls-1" d="M134.9,389.6l-.7-1.6a.1.1,0,0,0-.1-.1l-13,4.2,4.4-6a.1.1,0,0,0,.1-.1l-.3-.7a.1.1,0,0,0-.1-.1l-7.3-1.3,12.3-5.8c.1-.1.1-.1.1-.2l-.7-1.6c0-.1-.1-.2-.2-.1l-15.7,7.4c-.1,0-.1.1-.1.2l.6,1.4c0,.1,0,.1.1.1l8.2,1.5-5,6.6v.2l.5,1.4h.2l16.6-5.3C134.9,389.8,134.9,389.7,134.9,389.6Z"/><path class="cls-1" d="M138.5,396.6l-.9-1.7h-.2L122,402.8c-.1,0-.1.1-.1.2l.9,1.7c0,.1.1.1.2,0l15.4-7.9Z"/><path class="cls-1" d="M145.1,412.1h.2l1.6-1c.1-.1.2-.2.1-.2l-5.9-9.4c-.1-.1-.2-.1-.2,0l-1.7,1c-.1,0-.1.1,0,.2l2.4,3.8-12.9,8.1a.3.3,0,0,0-.1.2l1,1.6h.2l12.9-8.2Z"/><path class="cls-1" d="M157.6,424.1l-1.2-1.5h-.2l-5.7,4.9-5.1-6.1,5.7-4.9c.1,0,.1-.1,0-.2l-1.2-1.4h-.2l-13.2,11.2c-.1,0-.1.1-.1.2l1.2,1.4a.2.2,0,0,0,.3,0l5.7-4.8,5.2,6-5.8,4.9a.3.3,0,0,0-.1.2l1.2,1.5h.3l13.2-11.2C157.7,424.2,157.7,424.1,157.6,424.1Z"/><path class="cls-1" d="M172.8,437.3h-.2l-15.7,10.1c-.1,0-.1,0-.1.1h0l1.6,1.1c0,.1.1.1.2,0l6.1-3.9,4.9,3.5-1.7,7.1a.1.1,0,0,0,0,.2l1.6,1.1h.2l4.5-18.2h0Zm-2.6,8.8-3.5-2.5,4.9-3.1Z"/><path class="cls-1" d="M198.9,452.7l-.7-.9a6.4,6.4,0,0,0-2.7-1.9,4.6,4.6,0,0,0-3.8-.2,4.4,4.4,0,0,0-2.5,2.5,4.3,4.3,0,0,0,.3,3.5,5.5,5.5,0,0,0,.9,1.4l.5.6.2.2.3.3.4.4h0a12.2,12.2,0,0,1,1.8,2.3,2.4,2.4,0,0,1,.1,2c-.6,1.6-2,2-4.1,1.2a6,6,0,0,1-2.1-1.4l-.5-.7-.2-.3v-.2c0-.1-.1-.1-.2-.1l-1.7.7c-.1.1-.2.2-.1.3s.1.1.1.3l.3.4a6.1,6.1,0,0,0,.7,1,6.3,6.3,0,0,0,3,2.1,6.2,6.2,0,0,0,4.2.3,4.9,4.9,0,0,0,2.5-6.7,13,13,0,0,0-1-1.5l-.6-.7-.3-.3-.2-.2-.4-.5h-.1a6.8,6.8,0,0,1-1.5-2,1.5,1.5,0,0,1-.1-1.6c.5-1.4,1.6-1.7,3.4-1a3.6,3.6,0,0,1,1.8,1.2l.4.6c.1.1.2.1.2.2a.3.3,0,0,0,.1.2c0,.1.1.1.2.1l.9-.4.8-.3c.1-.1.2-.2.1-.3s-.1-.1-.1-.2S198.9,452.8,198.9,452.7Z"/><path class="cls-1" d="M204.4,468.9l3.4-14.9c0-.1,0-.2-.1-.2l-1.8-.4c-.1,0-.2,0-.2.1l-3.9,16.9c0,.1,0,.2.1.2l9.2,2.1c.1.1.2,0,.2-.1l.4-1.9c.1-.1,0-.1-.1-.2Z"/><path class="cls-1" d="M220.2,456.2c-.1-.1-.1,0-.1.1L218,473.5a.2.2,0,0,0,.2.2l1.8.2h.2l2-17.2c0-.2,0-.2-.1-.2Z"/><path class="cls-1" d="M242.3,465.5h-4.8c-.1,0-.1.1-.1.2v1.9c0,.1,0,.2.1.2h2.8v2.9a5.7,5.7,0,0,1-4.2,1.7,5.8,5.8,0,0,1-4.6-2,6.2,6.2,0,0,1-1.7-5,6.3,6.3,0,0,1,1.9-4.3,5.8,5.8,0,0,1,4.1-1.8,6,6,0,0,1,4.7,1.8h.2l1.3-1.3c.1-.1.1-.2,0-.2a7.9,7.9,0,0,0-5.9-2.6,8.1,8.1,0,0,0-5.9,2.5,8.7,8.7,0,0,0-2.6,5.9,7.6,7.6,0,0,0,.6,3.7,9.1,9.1,0,0,0,1.9,3,9.4,9.4,0,0,0,2.9,2,11.3,11.3,0,0,0,3.6.6,8.6,8.6,0,0,0,5.7-2.8v-.2h.1v-5.9A.2.2,0,0,0,242.3,465.5Z"/><path class="cls-1" d="M260.1,454.4l-1.8.3a.2.2,0,0,0-.2.2l1.3,7.4-7.8,1.3-1.3-7.4c0-.1-.1-.2-.2-.1l-1.8.3c-.1,0-.2.1-.1.2l2.9,17.1c0,.1.1.1.2.1l1.8-.3c.1,0,.1-.1.1-.2l-1.2-7.4,7.8-1.4,1.3,7.5c0,.1,0,.1.1.1l1.9-.3c.1,0,.1-.1.1-.2l-2.9-17.1C260.3,454.4,260.2,454.4,260.1,454.4Z"/><path class="cls-1" d="M276.6,451.6c.1,0,.1-.1.1-.2l-.7-1.8c0-.1-.1-.2-.2-.1L265.4,453c-.1.1-.2.1-.1.2l.6,1.9h.2l4.2-1.5,4.9,14.5h.2l1.8-.6c.1-.1.1-.1.1-.2L272.4,453Z"/><path class="cls-1" d="M293.6,439.9h-.1l-1.4.9H292l3.9,18.4h.2l1.6-1.1v-.2l-1.5-7.1,5-3.4,6,4.2h.2l1.5-1v-.2a.1.1,0,0,0-.1-.1Zm2.2,8.8-1.2-5.6,4.7,3.2Z"/><path class="cls-1" d="M320.6,435.7h-.2a5.9,5.9,0,0,1-1.7,3.2,6,6,0,0,1-4.6,1.7,6.8,6.8,0,0,1-4.6-2.1,6.2,6.2,0,0,1-1.8-4.4,5.9,5.9,0,0,1,1.5-4.4,6.1,6.1,0,0,1,3.5-1.9c.1-.1.2-.1.2-.2l-.4-1.9c0-.1-.1-.1-.2-.1a8.2,8.2,0,0,0-6.8,8.3,8.4,8.4,0,0,0,2.2,5.8,8.7,8.7,0,0,0,6.2,3.1,9.7,9.7,0,0,0,3.4-.5,9.2,9.2,0,0,0,3-1.8,7.9,7.9,0,0,0,2.3-4.3c0-.1,0-.1-.1-.2Z"/><path class="cls-1" d="M332.6,420.7c-.1,0-.2,0-.2.1a6.2,6.2,0,0,1-5.5,5.9,6.7,6.7,0,0,1-4.9-1.4,7.1,7.1,0,0,1-2.5-4,6.2,6.2,0,0,1,.8-4.5,5.9,5.9,0,0,1,3.2-2.6c.1,0,.1-.1.1-.2l-.7-1.8h-.2a8.6,8.6,0,0,0-4.3,3.5,8.6,8.6,0,0,0-1.1,5.9,8.8,8.8,0,0,0,3.1,5.3,8.7,8.7,0,0,0,6.7,2,7.5,7.5,0,0,0,3.3-1,7.8,7.8,0,0,0,2.6-2.2,8.5,8.5,0,0,0,1.6-4.6c0-.1,0-.2-.1-.2Z"/><path class="cls-1" d="M343.1,404.6h-.2l-4.3,7.9-4.8-2.6,3.1-5.7c0-.1,0-.2-.1-.2l-1.7-.9h-.2l-3.1,5.8-4.8-2.6,4.3-8v-.2l-1.7-.9h-.2l-5.2,9.7c-.1.1-.1.1,0,.2l15.3,8.2c.1.1.2.1.2,0l5.3-9.8v-.2Z"/><path class="cls-1" d="M335.9,381.2c-.1-.1-.2,0-.2.1l-.6,1.6c-.1.1,0,.2.1.2l11.7,4.4-15,4.1h-.1l-.3.7c0,.1,0,.2.1.2l16.3,6.1h.2l.6-1.6c0-.1,0-.2-.1-.2l-11.7-4.4,14.9-4.1c.1,0,.1,0,.1-.1l.3-.8c.1-.1,0-.1-.1-.2Z"/><path class="cls-1" d="M341,370.2l1.1-4.3c0-.1,0-.2-.1-.2l-1.9-.4c-.1-.1-.2,0-.2.1l-2.7,10.7.2.2,1.8.5c.1,0,.2,0,.2-.1l1.1-4.4,14.8,3.7c.1,0,.2,0,.2-.1l.4-1.8c.1-.1,0-.2-.1-.2Z"/><path class="cls-1" d="M212,287.4a4.8,4.8,0,0,0-1.1,1.5l-33.3,71.5a4.1,4.1,0,0,0-.5,1.6,1.6,1.6,0,0,0,.7,1.3,1.9,1.9,0,0,0,1.4.7c.9,0,1.6-.7,2.2-1.9l33.3-71.4a3.4,3.4,0,0,0,.5-1.6,2,2,0,0,0-.6-1.4,2.2,2.2,0,0,0-2.6-.3Z"/><path class="cls-1" d="M238,1.2H227.2A214.7,214.7,0,0,0,13.7,190.4,13.2,13.2,0,0,0,1,203.7a13.4,13.4,0,0,0,11.1,13.2V356.3c0,118.6,96.5,215.1,215.1,215.1H238c111.2,0,205.4-86.7,214.4-197.4.5-5.9.8-11.8.8-17.7V216.4C453.2,97.7,356.7,1.2,238,1.2ZM5.6,203.7a8.8,8.8,0,0,1,17.6,0,8.8,8.8,0,0,1-17.6,0Zm443,152.6c0,5.8-.3,11.6-.7,17.3C439,481.9,346.9,566.8,238,566.8H227.2c-116.1,0-210.5-94.4-210.5-210.5v-81c0-.2.8-15.8,35.4-16.5,8.2-.2,14.8-2.9,19.6-8.2,7.8-8.6,8.5-21.4,8.5-26.5a13.3,13.3,0,0,0,1.4-25.9C93.5,124.4,158.4,69,233.4,69c84.8,0,153.7,68.9,153.7,153.7v58l-.9.3a8,8,0,0,0-2.7,1.8,9.8,9.8,0,0,0-1.8,2.7,9.3,9.3,0,0,0-.7,3.3,8.5,8.5,0,0,0,5.2,7.8h0l.9.3v47.9c0,84.8-68.9,153.7-153.7,153.7S80.9,434.9,79.7,353.4a13.3,13.3,0,1,0-4.6-.1c1.1,84.2,70.2,149.8,158.3,149.8s158.3-71,158.3-158.3V296.9l1.1-.3a8.6,8.6,0,0,0,5.2-7.8,8.8,8.8,0,0,0-.7-3.3,9.8,9.8,0,0,0-1.8-2.7,8,8,0,0,0-2.7-1.8l-1.1-.3c-.1-4.2.3-17,7.5-24.8,3.7-4.2,8.8-6.3,15.2-6.4,19.8-.4,29.4-5.9,34.2-11.2ZM77.8,219.8a8.8,8.8,0,1,1,0-17.6,8.8,8.8,0,0,1,0,17.6Zm311.7,63.3a5.4,5.4,0,0,1,2.2.4,5.7,5.7,0,0,1,1.8,1.2,5.4,5.4,0,0,1,1.7,4.1,5.4,5.4,0,0,1-.4,2.2,4.6,4.6,0,0,1-1.3,1.8,5.1,5.1,0,0,1-4,1.7,5.4,5.4,0,0,1-2.2-.4,5.9,5.9,0,0,1-1.9-1.3,5.9,5.9,0,0,1-1.2-6.2,7.6,7.6,0,0,1,1.2-1.9h0A5.7,5.7,0,0,1,389.5,283.1ZM77.8,349a8.8,8.8,0,1,1,0-17.6,8.8,8.8,0,0,1,0,17.6ZM448.6,228c-.1.7-.8,16.2-34.2,16.9-7.8.1-14,2.8-18.6,7.9a26,26,0,0,0-4.1,5.9v-36c0-87.3-71-158.3-158.3-158.3-77.3,0-144.2,57.2-156.3,133.2A13.4,13.4,0,0,0,64.4,211a13.2,13.2,0,0,0,11.2,13.1c0,4.5-.6,16-7.3,23.4-3.9,4.3-9.4,6.6-16.3,6.7-20.6.4-30.5,5.9-35.3,11.2V216.9a13.4,13.4,0,0,0,1.5-26A210.2,210.2,0,0,1,227.2,5.8H238c116.1,0,210.6,94.5,210.6,210.6Z"/><path class="cls-1" d="M175.5,371.9a2.4,2.4,0,0,0-2.3.4,4.3,4.3,0,0,1-.4.7,2.5,2.5,0,0,0-.1.8,1.9,1.9,0,0,0,.1.8,4.3,4.3,0,0,0,.4.7l.7.5h.9a2,2,0,0,0,1.4-.6,1.8,1.8,0,0,0,.5-.7,1.9,1.9,0,0,0,.1-.8,2.5,2.5,0,0,0-.1-.8l-.5-.7Z"/><path class="cls-1" d="M309.7,372.8a1.8,1.8,0,0,0-1.5-.8h-124a1.8,1.8,0,0,0-1.8,1.8,1.9,1.9,0,0,0,1.8,1.9H305.5c-12.9,32.8-40.3,53.9-70.4,53.9h-3.5c-26.8,0-49.3-14.8-63.2-41.6a1.9,1.9,0,0,0-2.5-.8,1.9,1.9,0,0,0-.8,2.5c14.7,28.1,38.3,43.6,66.5,43.6h3.5c32.4,0,61.8-23.1,74.8-58.8A1.7,1.7,0,0,0,309.7,372.8Z"/><path class="cls-1" d="M47.1,295.5l.3.2,1.1.7a7.2,7.2,0,0,0,3.5.8,5.9,5.9,0,0,0,4.1-1.3,4.3,4.3,0,0,0,1.6-3.5,4.4,4.4,0,0,0-1.7-3.5,7.8,7.8,0,0,0-1.5-1l-.8-.4h-.3l-.3-.2-.5-.2h-.1a7.8,7.8,0,0,1-1.9-1,1.4,1.4,0,0,1-.6-1.1c0-.7.3-1.6,2.3-1.6a5.8,5.8,0,0,1,1.8.4l.6.3.2.2H55a.5.5,0,0,0,.7,0L57,283c.2-.2.2-.3.2-.4a.5.5,0,0,0-.2-.4.2.2,0,0,0-.2-.2l-.3-.3-1-.6a7.1,7.1,0,0,0-3.2-.7,5.5,5.5,0,0,0-3.7,1.2,3.9,3.9,0,0,0-1.4,3.2,4.3,4.3,0,0,0,1.5,3.3,4.7,4.7,0,0,0,1.4.8l.7.4,1.1.5a7.8,7.8,0,0,1,2.2,1.3,1.6,1.6,0,0,1,.7,1.3c0,.8-.3,2-2.8,2a5.4,5.4,0,0,1-2.1-.5l-.7-.4c-.1,0-.1-.1-.2-.2h-.2a.5.5,0,0,0-.7,0l-1.3,1.2c-.1.2-.2.3-.2.4a.5.5,0,0,0,.2.4Z"/><rect class="cls-1" x="62.3" y="280.4" width="2.9" height="16.87" rx="0.6" ry="0.6"/><path class="cls-1" d="M71.2,297.2h1.6a.6.6,0,0,0,.6-.5V286.6L81.2,297c.1.2.2.2.4.2h.8c.4,0,.6-.2.6-.5V280.9c0-.3-.2-.5-.6-.5H80.8c-.4,0-.6.2-.6.5v10.2l-7.8-10.5a.6.6,0,0,0-.5-.2h-.7c-.4,0-.6.2-.6.5v15.8C70.6,297,70.8,297.2,71.2,297.2Z"/><path class="cls-1" d="M92.5,296.5a7.5,7.5,0,0,0,3.3.7,8.5,8.5,0,0,0,4.7-1.3.6.6,0,0,0,.1-.8h0l-1-1.4a.4.4,0,0,0-.7-.2,5.6,5.6,0,0,1-3.1.9,5.4,5.4,0,0,1-3.9-1.7,5,5,0,0,1-1.6-4,5.3,5.3,0,0,1,1.5-3.7,5.2,5.2,0,0,1,3.6-1.8,5.4,5.4,0,0,1,3.5.9.4.4,0,0,0,.7-.2l1-1.4a.5.5,0,0,0-.2-.8,8.5,8.5,0,0,0-10.6,1.2,7.9,7.9,0,0,0-2.4,5.4,8.5,8.5,0,0,0,2.3,6.3A7.7,7.7,0,0,0,92.5,296.5Z"/><path class="cls-1" d="M116,296.7v-1.8a.5.5,0,0,0-.5-.5h-8.2v-4.2h5.8a.6.6,0,0,0,.6-.5v-1.8a.6.6,0,0,0-.6-.5h-5.8v-4.2h8.2a.5.5,0,0,0,.5-.5v-1.8a.5.5,0,0,0-.5-.5H105a.5.5,0,0,0-.5.5v15.8a.5.5,0,0,0,.5.5h10.5A.5.5,0,0,0,116,296.7Z"/><path class="cls-1" d="M367.4,284.2l1.5.5a.6.6,0,0,0,.7-.3,2.3,2.3,0,0,1,.7-1,2,2,0,0,1,2.5.3,1.5,1.5,0,0,1,.5,1.3,1.6,1.6,0,0,1-.2,1l-7,10.4a.4.4,0,0,0,0,.5.5.5,0,0,0,.5.3h9.5a.5.5,0,0,0,.5-.5V295a.5.5,0,0,0-.5-.5h-5.4l4.7-7.1a4,4,0,0,0,.7-2.4,4.8,4.8,0,0,0-4.7-4.7,4.4,4.4,0,0,0-2.7.9,4.8,4.8,0,0,0-1.7,2.3c-.1.2,0,.4,0,.5Z"/><path class="cls-1" d="M403.3,284.7a.6.6,0,0,0,.7.1v11.9c0,.3.2.5.6.5h1.6a.6.6,0,0,0,.6-.5V280.9a.6.6,0,0,0-.6-.5h-1.8l-2.3,2.3a.8.8,0,0,0-.2.4c.1.1.1.3.2.4Z"/><path class="cls-1" d="M413.6,287l.8,1.2a4.4,4.4,0,0,0-1.2,1.5,4.8,4.8,0,0,0-.6,2.4,4.9,4.9,0,0,0,1.5,3.6,5.1,5.1,0,0,0,3.7,1.5,5.1,5.1,0,0,0,5.1-5.1,4.8,4.8,0,0,0-.6-2.4,4.4,4.4,0,0,0-1.2-1.5,4.7,4.7,0,0,0,.9-1.2,4.8,4.8,0,0,0,.4-2,4.4,4.4,0,0,0-1.3-3.3,4.7,4.7,0,0,0-8,3.3A4.9,4.9,0,0,0,413.6,287Zm2.8-3.4a1.8,1.8,0,0,1,1.4-.6,1.6,1.6,0,0,1,1.3.6,1.8,1.8,0,0,1,.6,1.4,1.6,1.6,0,0,1-.6,1.3,1.8,1.8,0,0,1-2.7,0,1.6,1.6,0,0,1-.6-1.3A1.8,1.8,0,0,1,416.4,283.6Zm-.3,6.8a2.1,2.1,0,0,1,1.7-.7,2.4,2.4,0,1,1,0,4.8,2.1,2.1,0,0,1-1.7-.7,2.2,2.2,0,0,1,0-3.4Z"/><path class="cls-1" d="M166.3,156.9c-19.1,6-28.4,18.9-28.4,39.5V204c1.1,24.1,10.2,34.1,17,38.2a16.5,16.5,0,0,0-2.7,2.1,13.6,13.6,0,0,0-3.7,9.8v22.6a8.3,8.3,0,0,1-2.1,5.8,7,7,0,0,1-5.3,2.6,5,5,0,0,0-2.4.9,2.5,2.5,0,0,0-.7,1.9,2.4,2.4,0,0,0,.7,1.9,3.6,3.6,0,0,0,2.4.9,7.9,7.9,0,0,1,5.3,2.6,8.4,8.4,0,0,1,2.1,5.8v22.6a14.4,14.4,0,0,0,4.4,10.6,11.7,11.7,0,0,0,8.3,3.1,3.3,3.3,0,0,0,2.4-.7,2.7,2.7,0,0,0,0-3.8,4.5,4.5,0,0,0-2.6-.7,8.4,8.4,0,0,1-5.1-2.6,8.5,8.5,0,0,1-2.1-5.9V299.1a15.4,15.4,0,0,0-1.4-6.7,16,16,0,0,0-4.3-4.5,16.5,16.5,0,0,0,4.5-4.8,14.3,14.3,0,0,0,1.2-6.4V254.1a8,8,0,0,1,2.1-5.7,7.2,7.2,0,0,1,5.1-2.7,4.1,4.1,0,0,0,2.6-.8h.1l1.1-1c18.1-20.5,42.1-42.8,56.9-46.2.7,5.2.5,14.3-7.1,20a4.3,4.3,0,0,0-1.7,4.7,4.5,4.5,0,0,0,3.7,3.5,89.2,89.2,0,0,0,11.9.7c11.3,0,31.9-2,46.2-14.8,1.9,2.6,3.7,7.3,2.4,14.4a4.6,4.6,0,0,0,7.5,4.3,110.5,110.5,0,0,0,12.6-12.7,126.8,126.8,0,0,1,3.2,25.1V244a1.3,1.3,0,0,0-.1.6,2.4,2.4,0,0,0,.8,1.9,4.1,4.1,0,0,0,2.6.8,7.5,7.5,0,0,1,5.1,2.6,8.3,8.3,0,0,1,2.1,5.8v22.6a15.4,15.4,0,0,0,1.4,6.7,14.7,14.7,0,0,0,4.3,4.5,16.5,16.5,0,0,0-4.5,4.8,14.6,14.6,0,0,0-1.2,6.4v22.6a8.4,8.4,0,0,1-2.1,5.8,7.5,7.5,0,0,1-5.1,2.6,5.3,5.3,0,0,0-2.7.8,2.5,2.5,0,0,0-.7,1.9,2.2,2.2,0,0,0,.8,1.9,3.2,3.2,0,0,0,2.3.8,11.8,11.8,0,0,0,9-4,13.5,13.5,0,0,0,3.8-9.8V300.7a8.4,8.4,0,0,1,2-5.8,7.7,7.7,0,0,1,5.4-2.6,3.8,3.8,0,0,0,2.4-.9,2.4,2.4,0,0,0,.7-1.9,2.5,2.5,0,0,0-.7-1.9,3.8,3.8,0,0,0-2.4-.9,7.2,7.2,0,0,1-5.3-2.6,8.4,8.4,0,0,1-2.1-5.8V255.7a13.8,13.8,0,0,0-4.5-10.5,10.1,10.1,0,0,0-2.7-1.9c18-7.2,18.3-27.5,18.3-27.8V196.4a66,66,0,0,0-.6-8.3,3.1,3.1,0,0,0-.1-.9l-.2-.9a38.1,38.1,0,0,0-3.1-9.7c-10.8-25.5-41-47.7-73.4-54C213.2,115.4,175.9,134.7,166.3,156.9Zm67.5-31.3a79.1,79.1,0,0,1,15.2,1.5c31,6,59.9,27.1,70.1,51.4a30.7,30.7,0,0,1,2.8,8.7l.2,1.2a1.3,1.3,0,0,1,.1.6,49.3,49.3,0,0,1,.5,7.4v19.1c0,.9-.2,19.6-17.8,24.4-.4-8.2-1.9-19.6-4.6-27.8l-1.3-4.3-2.7,3.6A107.1,107.1,0,0,1,281.6,227c2.1-11.1-2.3-17.5-5.1-20.3l-1.6-1.6-1.6,1.6c-13.2,13.2-33.7,15.2-44.8,15.2a66.3,66.3,0,0,1-11.2-.7c11-8.1,9.6-21.4,8.6-26.7l-.5-2-2,.2c-19.3,2-49.2,33.5-61.6,47.6-4.4-1.1-17.9-6.9-19.3-36.5v-7.4c0-18.9,8.3-30.1,26.2-35.4l1.1-.3.4-1C177.2,141.7,204.2,125.6,233.8,125.6Z"/><path class="cls-1" d="M227.9,244a3.6,3.6,0,0,0-2.8-1.2H175.7a4,4,0,0,0-2.9,1.2,3.6,3.6,0,0,0-1,2.8c.6,6.2,2.9,26.6,10,31.8,5.3,3.9,14.8,4.3,18.6,4.3s13.2-.4,18.6-4.3,7.3-13.7,8.7-21.9h13.5c1.4,8.2,4,18.5,8.7,21.9s14.8,4.3,18.6,4.3,13.2-.4,18.5-4.3c7.1-5.2,9.5-25.6,10-31.8a3.7,3.7,0,0,0-1-2.8,3.8,3.8,0,0,0-2.8-1.2H243.8a4,4,0,0,0-2.9,1.2,3.6,3.6,0,0,0-1,2.8c.1,1,.2,2.2.4,3.7H228.6c.1-1.5.3-2.7.3-3.7A3.4,3.4,0,0,0,227.9,244Zm-11.8,30c-2.1,1.6-7.8,3.2-15.7,3.2s-13.6-1.6-15.8-3.2-5.9-14.1-7.3-25.5h46.2C222.1,259.9,219.1,271.9,216.1,274Zm75.5-25.5c-1.4,11.4-4.5,23.4-7.4,25.5s-7.8,3.2-15.7,3.2-13.6-1.6-15.8-3.2-5.9-14.1-7.4-25.5Z"/></svg>