<svg id="Layer_1" data-name="Layer 1" xmlns="http://www.w3.org/2000/svg" viewBox="0 0 25 25"><defs><style>.cls-1{fill:#a9a9a9;}</style></defs><title>Ivan-site</title><path class="cls-1" d="M22.4,14.2l-.5-.2-.5.2a.7.7,0,0,0,0,1l.5.2.5-.2a.7.7,0,0,0,0-1Z"/><path class="cls-1" d="M22.7,21.5V18.6a.7.7,0,0,0-1.4,0v3.2c0,.2.1.3.2.5l1,1H16.6l1-1.1a.9.9,0,0,0,.1-.5V9.7l1.2-2.9h3.6l-1,1a.8.8,0,0,0-.2.4v3.1a.7.7,0,0,0,1.4,0V8.5l1.9-1.9a.8.8,0,0,0,.2-.8.8.8,0,0,0-.6-.4H18.4a.7.7,0,0,0-.6.4h0L13.7,16.4,8.8,5.9a.7.7,0,0,0-.6-.4H1.3a.8.8,0,0,0-.6.4.9.9,0,0,0,.1.7L4,10.1v9.5l-3.2,4a.6.6,0,0,0-.1.7.8.8,0,0,0,.6.4H8.1a.7.7,0,0,0,.6-.4.5.5,0,0,0-.1-.7l-3.3-4V12.9l5.4,11.4a.7.7,0,0,0,.6.4h.1a.7.7,0,0,0,.6-.4l4.4-11.1v8.3l-1.8,2.1a.7.7,0,0,0-.2.7,1,1,0,0,0,.7.4H24a.7.7,0,0,0,.6-.4.6.6,0,0,0-.1-.7Zm-16,1.8H2.8l1.9-2.4Zm4.6-.9L5.3,9.6l-.2-.2L2.9,6.9H7.8L13,18h0Z"/></svg>