<svg id="Layer_1" data-name="Layer 1" xmlns="http://www.w3.org/2000/svg" viewBox="0 0 25 25"><defs><style>.cls-1{fill:#007dda;}</style></defs><title>Ivan-site</title><path class="cls-1" d="M8.4,15a2.5,2.5,0,0,0-2.2,2.7,2.5,2.5,0,0,0,2.2,2.7,2.5,2.5,0,0,0,2.3-2.7A2.5,2.5,0,0,0,8.4,15Zm0,4.5c-.7,0-1.3-.8-1.3-1.8s.6-1.8,1.3-1.8a1.6,1.6,0,0,1,1.4,1.8A1.6,1.6,0,0,1,8.4,19.5Z"/><path class="cls-1" d="M17,15a2.5,2.5,0,0,0-2.2,2.7A2.5,2.5,0,0,0,17,20.4a2.5,2.5,0,0,0,2.3-2.7A2.5,2.5,0,0,0,17,15Zm0,4.5c-.7,0-1.3-.8-1.3-1.8s.6-1.8,1.3-1.8a1.6,1.6,0,0,1,1.4,1.8A1.6,1.6,0,0,1,17,19.5Z"/><path class="cls-1" d="M17.7,12.7H7.3a3.8,3.8,0,0,0-2.6,1h0A4.7,4.7,0,0,0,3.3,18c.2,2.6,1.3,3.9,3.6,4.6a18.3,18.3,0,0,0,5.6.5h1.8a14.3,14.3,0,0,0,4.3-.7,4.3,4.3,0,0,0,2.9-2.8,7.7,7.7,0,0,0,.3-3C21.6,15,20.1,12.7,17.7,12.7Zm2.9,6.6a3.4,3.4,0,0,1-2.3,2.2,10.4,10.4,0,0,1-4.1.7H12.5a17.3,17.3,0,0,1-5.4-.5c-1.9-.6-2.7-1.6-2.9-3.8a3.9,3.9,0,0,1,1.1-3.5,3.2,3.2,0,0,1,2-.7H17.7c1.9,0,3,1.9,3.2,3.1A5.8,5.8,0,0,1,20.6,19.3Z"/><path class="cls-1" d="M23.5,9.9c-.3-.4-.4-.6-.3-1A19.5,19.5,0,0,0,23,6.4h0a10.2,10.2,0,0,0-.8-3L22,2.9l-.7.2a6.6,6.6,0,0,0-2.7.9L16.9,5l-1.2.7h0a22.2,22.2,0,0,0-6.3,0H9.2l-.7-.4-.8-.5A10.7,10.7,0,0,0,3.3,3H3l-.2.4c0,.1,0,.2-.1.2a14.2,14.2,0,0,0-.8,4.1,4.3,4.3,0,0,0,0,1.6.4.4,0,0,1-.1.3A7,7,0,0,0,.5,11.9,10.6,10.6,0,0,0,.2,17a10.5,10.5,0,0,0,1.3,4,8.2,8.2,0,0,0,6.7,3.8l4.4.2h2.2a13.8,13.8,0,0,0,4.8-.8,8.2,8.2,0,0,0,4.8-5.3,16.8,16.8,0,0,0,.6-4.5A8.1,8.1,0,0,0,23.5,9.9Zm0,8.7a6.8,6.8,0,0,1-4.3,4.7,11.2,11.2,0,0,1-4.4.8H13.6a46.1,46.1,0,0,1-5.3-.2,7.2,7.2,0,0,1-6-3.4,8.5,8.5,0,0,1-1.2-3.6,10.2,10.2,0,0,1,.2-4.7A9.4,9.4,0,0,1,2.5,10a1.7,1.7,0,0,0,.3-1,3.3,3.3,0,0,1,0-1.4,16.1,16.1,0,0,1,.7-3.7A11.8,11.8,0,0,1,7.3,5.5L8,6l.8.4a1.1,1.1,0,0,0,.8.2,19.4,19.4,0,0,1,5.9,0h.7l1.1-.7L19,4.7A7.2,7.2,0,0,1,21.5,4a9.2,9.2,0,0,1,.6,2.5h0a9.1,9.1,0,0,1,.1,2.3,2.6,2.6,0,0,0,.6,1.6,7.3,7.3,0,0,1,1.3,4A14.2,14.2,0,0,1,23.5,18.6Z"/></svg>