<svg id="Layer_1" data-name="Layer 1" xmlns="http://www.w3.org/2000/svg" viewBox="0 0 25 25"><defs><style>.cls-1{fill:#a9a9a9;}</style></defs><title>Ivan-site</title><path class="cls-1" d="M6.7,8.7H2.1a.9.9,0,0,0-.9.8V24.3a.9.9,0,0,0,.9.9H6.7a.9.9,0,0,0,.8-.9V9.5A.9.9,0,0,0,6.7,8.7ZM6.6,24.2H2.2V9.6H6.6Z"/><path class="cls-1" d="M6.8,2.3a3.5,3.5,0,0,0-2.4-1A3.6,3.6,0,0,0,.8,4.8,3.5,3.5,0,0,0,4.4,8.3,3.5,3.5,0,0,0,7.9,4.8,3.6,3.6,0,0,0,6.8,2.3ZM4.4,7.4A2.6,2.6,0,0,1,1.8,4.8,2.5,2.5,0,0,1,4.4,2.3,2.6,2.6,0,0,1,6.2,3a2.4,2.4,0,0,1,.7,1.8A2.6,2.6,0,0,1,4.4,7.4Z"/><path class="cls-1" d="M23.7,10.9c-1-1.7-2.8-2.6-5.3-2.6a6.7,6.7,0,0,0-3.6,1.1.8.8,0,0,0-.8-.7H9.5a.9.9,0,0,0-.8.8V24.3a.9.9,0,0,0,.8.9h4.6a.9.9,0,0,0,.9-.9V17c0-2.5.7-3,1.9-3s1.6.7,1.6,3.1v7.2a.8.8,0,0,0,.8.9h4.6a.8.8,0,0,0,.8-.9V16.2A11.1,11.1,0,0,0,23.7,10.9Zm.1,13.3H19.4V17.1a8,8,0,0,0-.3-2.7,2.1,2.1,0,0,0-2.2-1.3c-2.5,0-2.9,2-2.9,3.9v7.2H9.7V9.6h4.2v.9c0,.2.1.4.3.4s.3,0,.5-.1a4.7,4.7,0,0,1,3.7-1.5c4.7,0,5.4,3.3,5.4,6.9v8Z"/><path class="cls-1" d="M3.1,18.3a.5.5,0,0,0-.4.5v4.4a.5.5,0,0,0,.4.5.5.5,0,0,0,.5-.5V18.8A.5.5,0,0,0,3.1,18.3Z"/><path class="cls-1" d="M3.1,16.3a.5.5,0,0,0-.4.5v.4a.5.5,0,0,0,.4.5.5.5,0,0,0,.5-.5v-.4A.5.5,0,0,0,3.1,16.3Z"/></svg>