<svg id="Layer_1" data-name="Layer 1" xmlns="http://www.w3.org/2000/svg" viewBox="0 0 25 25"><defs><style>.cls-1{fill:#007dda;}</style></defs><title>Ivan-site</title><path class="cls-1" d="M24.3,6.2a2,2,0,0,0-1.5-.6H2.4a2.3,2.3,0,0,0-1.6.6A2.6,2.6,0,0,0,.1,7.8V22.9a2.1,2.1,0,0,0,.7,1.5,2,2,0,0,0,1.6.7H22.8a1.8,1.8,0,0,0,1.5-.7,1.8,1.8,0,0,0,.7-1.5V7.8A2.1,2.1,0,0,0,24.3,6.2ZM23.2,22.9a.4.4,0,0,1-.1.3H2.4c-.2,0-.3,0-.3-.1s-.2-.2-.2-.3V12.2a2.8,2.8,0,0,0,1,.9l5.9,4.7,1.1,1,1.2.6a2.7,2.7,0,0,0,1.4.4h.1a2.7,2.7,0,0,0,1.4-.4l1.2-.6,1.1-1,5.9-4.7a2.8,2.8,0,0,0,1-.9V22.9Zm0-14.7h0a3.2,3.2,0,0,1-.6,1.8,7.6,7.6,0,0,1-1.4,1.6l-5.6,4.4-.5.4c-.2.3-.5.4-.6.6l-.6.4-.7.4H12l-.7-.4-.7-.4c-.1-.2-.3-.3-.6-.6l-.5-.4L4,11.7A4.6,4.6,0,0,1,1.9,7.8l.2-.3H23.2v.6Z"/></svg>