<?xml version="1.0" encoding="utf-8"?>
<!-- Generator: Adobe Illustrator 22.1.0, SVG Export Plug-In . SVG Version: 6.00 Build 0)  -->
<svg version="1.1" id="Layer_1" xmlns="http://www.w3.org/2000/svg" xmlns:xlink="http://www.w3.org/1999/xlink" x="0px" y="0px"
	 viewBox="0 0 98.5 124.2" style="enable-background:new 0 0 98.5 124.2;" xml:space="preserve">
<style type="text/css">
	.st0{fill:none;}
	.st1{fill:#FFFFFF;stroke:#000000;stroke-width:0.4231;stroke-miterlimit:10;}
	.st2{fill:#307ABF;}
	.st3{fill:none;stroke:#000000;stroke-miterlimit:10;}
	.st4{fill:none;stroke:#000000;stroke-width:0.7237;stroke-miterlimit:10;}
	.st5{stroke:#000000;stroke-width:0.292;stroke-linecap:round;stroke-linejoin:round;stroke-miterlimit:10;}
	.st6{stroke:#000000;stroke-width:0.178;stroke-linecap:round;stroke-linejoin:round;stroke-miterlimit:10;}
	.st7{fill:none;stroke:#000000;stroke-width:1.0821;stroke-miterlimit:10;}
	.st8{stroke:#000000;stroke-width:0.2281;stroke-linecap:round;stroke-linejoin:round;stroke-miterlimit:10;}
	.st9{fill:#010101;}
	.st10{fill:none;stroke:#010101;stroke-miterlimit:10;}
	.st11{fill:none;stroke:#000000;stroke-width:0.909;stroke-linecap:round;stroke-linejoin:round;stroke-miterlimit:10;}
	.st12{fill:none;stroke:#000000;stroke-width:0.8;stroke-linecap:round;stroke-linejoin:round;stroke-miterlimit:10;}
</style>
<g>
	<g>
		<g>
			<path d="M30.3,9.4C30.3,9.4,30.3,9.4,30.3,9.4l2.9,5.1c0,0,0,0.1,0,0.1l-0.6,0.3c0,0-0.1,0-0.1,0l-2.8-5.1c0,0,0-0.1,0-0.1
				L30.3,9.4z"/>
		</g>
		<g>
			<path d="M36.2,6.9C36.2,6.8,36.2,6.8,36.2,6.9l0.6-0.3c0,0,0,0,0.1,0c0,0,0,0,0,0.1l0.3,6.1c0,0,0,0.1,0,0.1L36.6,13
				c0,0-0.1,0-0.1,0l-4-4.6c0,0,0,0,0-0.1c0,0,0,0,0-0.1L33.1,8c0,0,0.1,0,0.1,0l3.2,3.7L36.2,6.9z"/>
		</g>
		<g>
			<path d="M41.4,5.4C41.4,5.4,41.4,5.4,41.4,5.4l3.6,5.3c0,0,0,0,0,0c0,0,0,0,0,0l-0.7,0.1c0,0,0,0-0.1,0l-1.4-2.1l-2.1,0.4
				l-0.5,2.4c0,0,0,0,0,0l-0.7,0.1c0,0,0,0,0,0c0,0,0,0,0,0l1.2-6.2c0,0,0,0,0,0L41.4,5.4z M42.4,8.2l-1.1-1.6l-0.4,1.9L42.4,8.2z"
				/>
		</g>
		<g>
			<path d="M50.5,4.7C50.6,4.7,50.6,4.7,50.5,4.7l0.2,5.9c0,0,0,0.1-0.1,0.1l-0.3,0c0,0,0,0,0,0l-3.2-4.2l0.1,4.2c0,0,0,0.1-0.1,0.1
				l-0.6,0c0,0-0.1,0-0.1-0.1l-0.1-5.8c0,0,0-0.1,0.1-0.1l0.3,0c0,0,0,0,0,0L49.9,9l-0.1-4.2c0,0,0-0.1,0.1-0.1L50.5,4.7z"/>
		</g>
		<g>
			<path d="M59.7,11.3C59.7,11.3,59.7,11.4,59.7,11.3C59.7,11.4,59.7,11.4,59.7,11.3l-0.8,0c0,0,0,0,0,0l-1-2.7l0,0l-1-0.2l-0.4,2.5
				c0,0,0,0.1-0.1,0l-0.6-0.1c0,0-0.1,0,0-0.1L56.7,5c0,0,0-0.1,0.1,0l2.2,0.3c0.5,0.1,0.8,0.3,1.1,0.7c0.3,0.4,0.4,0.8,0.3,1.3
				c-0.1,0.4-0.3,0.7-0.5,0.9c-0.3,0.2-0.6,0.4-1,0.4L59.7,11.3z M58.5,7.8c0.3,0,0.5,0,0.7-0.2s0.3-0.4,0.4-0.6
				c0-0.3,0-0.5-0.2-0.7C59.2,6.2,59,6,58.8,6l-1.5-0.2L57,7.6L58.5,7.8z"/>
		</g>
		<g>
			<path d="M65.6,7C65.6,7,65.6,7,65.6,7l0.4,6.4c0,0,0,0,0,0c0,0,0,0-0.1,0l-0.6-0.2c0,0,0,0,0,0l-0.1-2.5l-2-0.7l-1.7,1.8
				c0,0,0,0-0.1,0l-0.6-0.2c0,0,0,0,0,0c0,0,0,0,0,0L65,6.8c0,0,0,0,0.1,0L65.6,7z M65,9.9l-0.1-2l-1.3,1.5L65,9.9z"/>
		</g>
		<g>
			<path d="M73.8,11.1C73.9,11.1,73.9,11.2,73.8,11.1l-2.9,5.1c0,0,0,0-0.1,0l-0.3-0.1c0,0,0,0,0,0L70,10.8l-2.1,3.6c0,0,0,0-0.1,0
				l-0.5-0.3c0,0,0,0,0-0.1l3-5c0,0,0,0,0.1,0l0.2,0.1c0,0,0,0,0,0l0.6,5.3l2.1-3.6c0,0,0,0,0.1,0L73.8,11.1z"/>
		</g>
	</g>
	<g>
		<g>
			<path d="M14.4,89.9l-1.6,0.5l0.6,2c0,0,0,0.1,0,0.1l-0.6,0.2c0,0-0.1,0-0.1,0l-0.6-2l-2.3,0.7c0,0-0.1,0-0.1,0l-0.2-0.6
				c0,0,0-0.1,0-0.1l5.3-1.6c0,0,0.1,0,0.1,0l1,3.2c0,0,0,0.1,0,0.1l-0.6,0.2c0,0-0.1,0-0.1,0L14.4,89.9z"/>
		</g>
		<g>
			<path d="M18,96.7C18,96.8,18,96.8,18,96.7l-3.2,1.6c-0.5,0.2-1,0.3-1.5,0.1s-0.9-0.5-1.2-1c-0.3-0.5-0.3-1-0.1-1.6
				c0.2-0.5,0.5-0.9,1-1.2l3.1-1.5c0,0,0.1,0,0.1,0l0.3,0.5c0,0,0,0.1,0,0.1l-3.2,1.5c-0.3,0.2-0.5,0.4-0.7,0.7
				c-0.1,0.3-0.1,0.7,0,1c0.1,0.3,0.4,0.6,0.7,0.7c0.3,0.1,0.7,0.1,1,0l3.2-1.5c0,0,0.1,0,0.1,0L18,96.7z"/>
		</g>
		<g>
			<path d="M16.6,103.5C16.6,103.6,16.6,103.6,16.6,103.5l-0.5,0.4c0,0-0.1,0-0.1,0l-1.8-2.6c0,0,0-0.1,0-0.1l4.5-3.1
				c0,0,0.1,0,0.1,0l0.3,0.5c0,0,0,0.1,0,0.1l-4,2.7L16.6,103.5z"/>
		</g>
		<g>
			<path d="M19.9,107.3C19.9,107.3,19.9,107.4,19.9,107.3l-0.5,0.5c0,0,0,0-0.1,0l-2.1-2.3c0,0,0,0,0-0.1l4.1-3.7c0,0,0,0,0.1,0
				l0.4,0.5c0,0,0,0,0,0.1l-3.6,3.2L19.9,107.3z"/>
		</g>
		<g>
			<path d="M22.2,107C22.1,107,22.1,106.9,22.2,107l0.4-0.5c0,0,0,0,0.1,0l1.4,1.2c0,0,0,0,0,0.1l-0.4,0.4c0,0,0,0-0.1,0L22.2,107z"
				/>
		</g>
		<g>
			<path d="M26.8,109.7c0,0,0,0.1,0.1,0.1l0.1,0.1c0,0.1,0.1,0.2,0.1,0.2c0.1,0.2,0.2,0.4,0.2,0.6c0.1,0.5,0.1,0.9-0.2,1.2
				c-0.3,0.4-0.6,0.6-1,0.7c-0.4,0-0.9-0.1-1.3-0.4c-0.3-0.2-0.6-0.5-0.8-0.9c-0.1-0.1-0.1-0.3-0.2-0.4c0,0,0-0.1,0-0.1
				c0,0,0-0.1,0-0.1c0,0,0-0.1,0-0.1l0.6-0.1c0,0,0.1,0,0.1,0c0,0,0,0,0,0.1c0,0,0,0.1,0,0.1c0,0.1,0.1,0.2,0.1,0.3
				c0.1,0.2,0.3,0.4,0.6,0.6c0.6,0.4,1.1,0.4,1.4-0.1c0.1-0.2,0.2-0.4,0.1-0.6c-0.1-0.2-0.2-0.5-0.4-0.8l0,0l-0.1-0.2l-0.1-0.1
				l-0.1-0.1c0-0.1-0.1-0.2-0.1-0.2c-0.1-0.2-0.2-0.3-0.2-0.5c-0.1-0.4,0-0.8,0.2-1.1c0.2-0.4,0.6-0.6,0.9-0.6
				c0.4,0,0.8,0.1,1.2,0.4c0.3,0.2,0.5,0.5,0.7,0.8c0.1,0.1,0.1,0.2,0.2,0.3c0,0,0,0.1,0,0.1c0,0,0,0.1,0,0.1c0,0,0,0.1,0,0.1
				l-0.3,0l-0.3,0c0,0-0.1,0-0.1,0c0,0,0,0,0-0.1c0,0,0-0.1,0-0.1c0-0.1-0.1-0.2-0.1-0.2c-0.1-0.2-0.3-0.4-0.5-0.5
				c-0.5-0.4-0.9-0.3-1.2,0c-0.1,0.2-0.1,0.3-0.1,0.5c0,0.2,0.2,0.4,0.4,0.7l0,0L26.8,109.7z"/>
		</g>
		<g>
			<path d="M33.5,110.8C33.6,110.8,33.6,110.8,33.5,110.8l-0.3,0.6c0,0,0,0-0.1,0l-1.3-0.7l-2.2,4.3c0,0,0,0-0.1,0l-0.5-0.3
				c0,0,0,0,0-0.1l2.2-4.3l-1.3-0.7c0,0,0,0,0-0.1l0.3-0.5c0,0,0,0,0.1,0L33.5,110.8z"/>
		</g>
		<g>
			<path d="M36.8,111.9C36.8,111.9,36.8,111.9,36.8,111.9l0.5,6c0,0,0,0,0,0s0,0,0,0l-0.6-0.2c0,0,0,0,0,0l-0.2-2.3l-1.9-0.6
				l-1.5,1.8c0,0,0,0-0.1,0l-0.6-0.2c0,0,0,0,0,0c0,0,0,0,0,0l3.9-4.5c0,0,0,0,0.1,0L36.8,111.9z M36.3,114.7l-0.1-1.8l-1.2,1.4
				L36.3,114.7z"/>
		</g>
		<g>
			<path d="M43.2,118.4C43.2,118.4,43.2,118.5,43.2,118.4c-0.5,0.3-1.1,0.4-1.6,0.3c-0.4-0.1-0.7-0.2-1.1-0.4
				c-0.3-0.2-0.6-0.5-0.8-0.8c-0.5-0.7-0.6-1.4-0.5-2.2c0.1-0.7,0.5-1.2,1-1.7c0.6-0.4,1.2-0.6,1.9-0.6c0.6,0,1.2,0.3,1.7,0.7
				c0,0,0,0,0,0.1l-0.4,0.4c0,0,0,0-0.1,0c-0.3-0.3-0.8-0.5-1.2-0.5c-0.5,0-1,0.1-1.4,0.5c-0.4,0.3-0.7,0.8-0.8,1.3
				c-0.1,0.6,0,1.1,0.4,1.6c0.3,0.5,0.8,0.7,1.4,0.8c0.4,0.1,0.8,0,1.2-0.2c0,0,0.1,0,0.1,0L43.2,118.4z"/>
		</g>
		<g>
			<path d="M49,119C49,119,49,119,49,119C49,119,49,119,49,119L48,119c0,0,0,0,0,0l-2.3-2.2l0,2.1c0,0,0,0.1-0.1,0l-0.6,0
				c0,0-0.1,0,0-0.1l0.1-5.5c0,0,0-0.1,0.1,0l0.6,0c0,0,0,0,0,0.1l0,2.1l2.1-2.1c0,0,0,0,0,0l0.9,0c0,0,0,0,0,0c0,0,0,0,0,0.1
				l-2.7,2.7L49,119z"/>
		</g>
		<g>
			<path d="M54.3,113.4c0.8,0,1.5,0.2,2,0.7c0.6,0.5,0.9,1.2,0.9,2c0,0.8-0.2,1.4-0.8,2s-1.2,0.9-2,0.9l-1.7,0.1c0,0-0.1,0-0.1,0
				l-0.3-5.5c0,0,0-0.1,0-0.1L54.3,113.4z M54.6,118.3c0.6,0,1.1-0.3,1.4-0.7c0.4-0.4,0.6-0.9,0.5-1.5c0-0.6-0.3-1.1-0.7-1.4
				c-0.4-0.4-0.9-0.6-1.5-0.5l-1.1,0.1l0.2,4.2L54.6,118.3z"/>
		</g>
		<g>
			<path d="M62.1,112.2C62.2,112.2,62.2,112.2,62.1,112.2l0.2,0.6c0,0,0,0.1,0,0.1l-2.9,0.6l0.4,1.7l2.1-0.5c0,0,0.1,0,0.1,0
				l0.1,0.6c0,0,0,0.1,0,0.1l-2.1,0.5l0.4,1.7l2.9-0.6c0,0,0.1,0,0.1,0l0.1,0.6c0,0,0,0.1,0,0.1l-3.5,0.8c0,0-0.1,0-0.1,0l-1.2-5.4
				c0,0,0-0.1,0-0.1L62.1,112.2z"/>
		</g>
		<g>
			<path d="M66.4,110.7C66.4,110.7,66.5,110.6,66.4,110.7l0.6-0.3c0,0,0,0,0.1,0c0,0,0,0,0,0.1l0.2,5.8c0,0,0,0.1,0,0.1l-0.5,0.2
				c0,0-0.1,0-0.1,0l-3.7-4.4c0,0,0,0,0-0.1c0,0,0,0,0-0.1l0.5-0.2c0,0,0.1,0,0.1,0l2.9,3.5L66.4,110.7z"/>
		</g>
		<g>
			<path d="M71,108.2C71,108.2,71.1,108.2,71,108.2l0.4,0.5c0,0,0,0.1,0,0.1l-2.6,1.5l0.9,1.5l1.9-1.1c0,0,0.1,0,0.1,0l0.3,0.5
				c0,0,0,0.1,0,0.1l-1.9,1.1l0.9,1.5l2.6-1.5c0,0,0.1,0,0.1,0l0.3,0.5c0,0,0,0.1,0,0.1l-3.2,1.8c0,0-0.1,0-0.1,0l-2.7-4.8
				c0,0,0-0.1,0-0.1L71,108.2z"/>
		</g>
		<g>
			<path d="M77.5,109.4C77.5,109.4,77.6,109.4,77.5,109.4l0.4,0.5c0,0,0,0.1,0,0.1l-2.5,1.9c0,0-0.1,0-0.1,0l-3.4-4.3
				c0,0,0-0.1,0-0.1l0.5-0.4c0,0,0.1,0,0.1,0l3,3.8L77.5,109.4z"/>
		</g>
		<g>
			<path d="M77.1,103c0.5-0.6,1.2-0.9,1.9-0.9c0.8,0,1.4,0.2,2,0.7c0.6,0.5,0.9,1.2,0.9,1.9c0,0.8-0.2,1.4-0.7,2
				c-0.5,0.6-1.2,0.9-1.9,0.9c-0.8,0-1.4-0.2-2-0.7c-0.6-0.5-0.9-1.2-0.9-1.9C76.3,104.2,76.5,103.6,77.1,103z M80.7,106.3
				c0.4-0.4,0.6-0.9,0.6-1.5c0-0.6-0.2-1.1-0.7-1.4c-0.4-0.4-0.9-0.6-1.5-0.6c-0.6,0-1.1,0.2-1.4,0.7c-0.4,0.4-0.6,0.9-0.6,1.5
				c0,0.6,0.2,1.1,0.7,1.4c0.4,0.4,0.9,0.6,1.5,0.6C79.8,107,80.3,106.7,80.7,106.3z"/>
		</g>
		<g>
			<path d="M80.9,98c0.2-0.4,0.6-0.6,1-0.7c0.4-0.1,0.8,0,1.2,0.2c0.4,0.2,0.6,0.6,0.7,1c0.1,0.4,0,0.8-0.2,1.2l-0.7,1.2l2,1.3
				c0,0,0,0,0,0.1l-0.3,0.5c0,0,0,0-0.1,0l-4.6-3c0,0,0,0,0-0.1L80.9,98z M83,99.3c0.1-0.2,0.2-0.4,0.1-0.7
				c-0.1-0.2-0.2-0.4-0.4-0.6c-0.2-0.1-0.4-0.2-0.7-0.1s-0.4,0.2-0.6,0.4l-0.8,1.2l1.5,0.9L83,99.3z"/>
		</g>
		<g>
			<path d="M83.8,92.1C83.9,92.1,83.9,92.1,83.8,92.1l0.6,0.2c0,0,0,0,0,0.1l-1.2,2.7l1.6,0.7l0.9-2c0,0,0,0,0.1,0l0.6,0.2
				c0,0,0,0,0,0.1l-0.9,2l1.6,0.7l1.2-2.7c0,0,0,0,0.1,0l0.6,0.2c0,0,0,0,0,0.1l-1.5,3.3c0,0,0,0-0.1,0l-5-2.2c0,0,0,0,0-0.1
				L83.8,92.1z"/>
		</g>
		<g>
			<path d="M90.6,88.7C90.6,88.7,90.6,88.7,90.6,88.7C90.6,88.7,90.6,88.7,90.6,88.7l-0.1,0.7c0,0,0,0,0,0l-2.7,0.6l0,0L87.5,91
				l2.3,0.6c0,0,0,0,0,0.1l-0.2,0.6c0,0,0,0-0.1,0l-5.3-1.4c0,0,0,0,0-0.1l0.5-2c0.1-0.4,0.4-0.8,0.8-1c0.4-0.2,0.8-0.3,1.2-0.1
				c0.3,0.1,0.6,0.3,0.8,0.6c0.2,0.3,0.3,0.6,0.3,1L90.6,88.7z M87.2,89.5c0.1-0.2,0-0.5-0.1-0.7c-0.1-0.2-0.3-0.3-0.5-0.4
				c-0.2-0.1-0.5,0-0.7,0.1c-0.2,0.1-0.3,0.3-0.4,0.5l-0.4,1.3l1.7,0.5L87.2,89.5z"/>
		</g>
	</g>
	<g>
		<g>
			<path d="M24.4,36.8c0.2-0.1,0.3-0.2,0.5-0.2c0.2,0,0.4,0,0.6,0.1c0.3,0.1,0.5,0.4,0.6,0.6c0.1,0.3,0.1,0.6,0,0.8l-0.6,1.3
				c0,0,0,0,0,0L22,38c0,0,0,0,0,0l0.6-1.2c0.1-0.2,0.3-0.4,0.6-0.5c0.3-0.1,0.5-0.1,0.8,0C24.1,36.3,24.3,36.5,24.4,36.8z
				 M23.6,38.2l0.4-0.8c0.1-0.1,0.1-0.3,0-0.4c-0.1-0.1-0.1-0.2-0.3-0.3c-0.1-0.1-0.3-0.1-0.4,0c-0.1,0-0.2,0.1-0.3,0.3l-0.4,0.8
				L23.6,38.2z M25.6,38c0.1-0.2,0.1-0.3,0-0.5c-0.1-0.2-0.2-0.3-0.3-0.4c-0.2-0.1-0.3-0.1-0.5,0c-0.2,0.1-0.3,0.2-0.4,0.3L24,38.4
				l1.2,0.5L25.6,38z"/>
		</g>
		<g>
			<path d="M25.3,31.9C25.3,31.9,25.3,31.9,25.3,31.9l2.1,1.3c0.3,0.2,0.5,0.5,0.6,0.9s0,0.7-0.2,1c-0.2,0.3-0.5,0.5-0.9,0.6
				c-0.4,0.1-0.7,0-1.1-0.2l-2-1.3c0,0,0,0,0,0l0.2-0.3c0,0,0,0,0,0l2,1.3c0.2,0.1,0.4,0.2,0.7,0.1c0.2,0,0.4-0.2,0.6-0.4
				c0.1-0.2,0.2-0.4,0.1-0.7c-0.1-0.2-0.2-0.4-0.4-0.6l-2-1.3c0,0,0,0,0,0L25.3,31.9z"/>
		</g>
		<g>
			<path d="M26.6,30.1C26.7,30.1,26.7,30.1,26.6,30.1l3,2.4c0,0,0,0,0,0l-0.3,0.3c0,0,0,0,0,0l-2.9-2.4c0,0,0,0,0,0L26.6,30.1z"/>
		</g>
		<g>
			<path d="M31.7,29.6C31.7,29.6,31.7,29.6,31.7,29.6l0.3,0.3c0,0,0,0,0,0l-1.5,1.5c0,0,0,0,0,0l-2.7-2.6c0,0,0,0,0,0l0.3-0.3
				c0,0,0,0,0,0l2.4,2.3L31.7,29.6z"/>
		</g>
		<g>
			<path d="M31.4,25.5c0.4-0.3,0.9-0.4,1.4-0.4c0.5,0.1,1,0.3,1.3,0.8c0.3,0.4,0.4,0.9,0.4,1.4s-0.3,0.9-0.7,1.3l-0.9,0.7
				c0,0,0,0,0,0l-2.3-3c0,0,0,0,0,0L31.4,25.5z M33.4,28.1c0.3-0.2,0.5-0.6,0.5-0.9c0-0.4-0.1-0.7-0.3-1.1c-0.2-0.3-0.6-0.5-0.9-0.5
				c-0.4-0.1-0.7,0-1,0.3l-0.6,0.5l1.8,2.3L33.4,28.1z"/>
		</g>
		<g>
			<path d="M34.7,23.2C34.7,23.2,34.7,23.2,34.7,23.2l2,3.2c0,0,0,0,0,0l-0.4,0.2c0,0,0,0,0,0l-2-3.2c0,0,0,0,0,0L34.7,23.2z"/>
		</g>
		<g>
			<path d="M38.6,21.2C38.7,21.2,38.7,21.2,38.6,21.2l1.6,3.4c0,0,0,0,0,0l-0.2,0.1c0,0,0,0,0,0l-3-1.6l1.2,2.5c0,0,0,0,0,0
				l-0.4,0.2c0,0,0,0,0,0l-1.6-3.4c0,0,0,0,0,0l0.2-0.1c0,0,0,0,0,0l3,1.6l-1.2-2.5c0,0,0,0,0,0L38.6,21.2z"/>
		</g>
		<g>
			<path d="M43.9,21.4C43.9,21.4,43.9,21.4,43.9,21.4l0.4,1.3c0,0,0,0,0,0l0,0c-0.2,0.5-0.6,0.8-1,0.9c-0.3,0.1-0.5,0.1-0.8,0.1
				c-0.3,0-0.5-0.1-0.7-0.2c-0.2-0.1-0.4-0.3-0.6-0.5c-0.2-0.2-0.3-0.5-0.3-0.7c-0.1-0.5,0-1,0.2-1.4s0.6-0.7,1.1-0.9
				c0.5-0.1,1-0.1,1.4,0.2c0,0,0,0,0,0l-0.2,0.4c0,0,0,0,0,0c-0.4-0.2-0.7-0.2-1.1-0.1c-0.3,0.1-0.6,0.3-0.8,0.6
				c-0.2,0.3-0.2,0.7-0.2,1c0.1,0.4,0.3,0.7,0.7,0.9c0.4,0.2,0.7,0.3,1.1,0.2c0.3-0.1,0.6-0.3,0.8-0.6L43.6,22L43,22.2c0,0,0,0,0,0
				l-0.1-0.4c0,0,0,0,0,0L43.9,21.4z"/>
		</g>
		<g>
			<path d="M49.3,18.8C49.3,18.8,49.3,18.8,49.3,18.8l0.1,0.4c0,0,0,0,0,0l-1,0.1l0.3,3.3c0,0,0,0,0,0l-0.4,0c0,0,0,0,0,0l-0.3-3.3
				l-1,0.1c0,0,0,0,0,0l0-0.4c0,0,0,0,0,0L49.3,18.8z"/>
		</g>
		<g>
			<path d="M53.4,18.9C53.4,18.9,53.4,18.9,53.4,18.9l-0.1,3.8c0,0,0,0,0,0l-0.4,0c0,0,0,0,0,0l0-1.6L51.1,21l0,1.6c0,0,0,0,0,0
				l-0.4,0c0,0,0,0,0,0l0.1-3.8c0,0,0,0,0,0l0.4,0c0,0,0,0,0,0l0,1.6l1.8,0.1l0-1.6c0,0,0,0,0,0L53.4,18.9z"/>
		</g>
		<g>
			<path d="M55.7,19.1C55.7,19.1,55.7,19.1,55.7,19.1l-0.5,3.8c0,0,0,0,0,0l-0.4-0.1c0,0,0,0,0,0l0.5-3.7c0,0,0,0,0,0L55.7,19.1z"/>
		</g>
		<g>
			<path d="M60,20C60.1,20.1,60.1,20.1,60,20l-0.9,3.7c0,0,0,0,0,0l-0.2,0c0,0,0,0,0,0l-1.3-3.1L57,23.2c0,0,0,0,0,0l-0.4-0.1
				c0,0,0,0,0,0l0.9-3.7c0,0,0,0,0,0l0.2,0c0,0,0,0,0,0l1.3,3.2l0.7-2.7c0,0,0,0,0,0L60,20z"/>
		</g>
		<g>
			<path d="M63.9,23.5C63.9,23.5,64,23.6,63.9,23.5l-0.5,1.2c0,0,0,0,0,0l0,0C62.9,25,62.4,25,62,24.9c-0.3-0.1-0.5-0.2-0.7-0.4
				c-0.2-0.2-0.3-0.4-0.4-0.6c-0.1-0.2-0.1-0.5-0.1-0.8c0-0.3,0.1-0.5,0.2-0.8c0.2-0.5,0.6-0.8,1.1-1c0.5-0.2,0.9-0.2,1.4,0
				c0.5,0.2,0.8,0.5,1,1c0,0,0,0,0,0L64,22.5c0,0,0,0,0,0c-0.2-0.4-0.4-0.6-0.8-0.8c-0.3-0.1-0.7-0.1-1,0c-0.3,0.1-0.6,0.4-0.8,0.7
				c-0.2,0.4-0.2,0.8-0.1,1.1c0.1,0.4,0.4,0.7,0.8,0.8c0.3,0.1,0.7,0.1,1,0l0.3-0.6l-0.6-0.2c0,0,0,0,0,0l0.2-0.4c0,0,0,0,0,0
				L63.9,23.5z"/>
		</g>
		<g>
			<path d="M66.4,24.6C66.4,24.7,66.4,24.7,66.4,24.6l0.1,0.1c0,0.1,0.1,0.1,0.1,0.2c0.1,0.1,0.1,0.3,0.2,0.4
				c0.1,0.3,0.1,0.6-0.1,0.8c-0.2,0.3-0.4,0.4-0.7,0.5c-0.3,0.1-0.6,0-0.9-0.2c-0.2-0.1-0.4-0.3-0.6-0.6c-0.1-0.1-0.1-0.2-0.1-0.3
				c0,0,0-0.1,0-0.1c0,0,0,0,0-0.1c0,0,0,0,0,0l0.4-0.1c0,0,0,0,0,0c0,0,0,0,0,0.1c0,0,0,0,0,0.1c0,0.1,0.1,0.1,0.1,0.2
				c0.1,0.2,0.2,0.3,0.4,0.4c0.4,0.3,0.7,0.2,0.9-0.1c0.1-0.1,0.1-0.3,0-0.4c0-0.1-0.1-0.3-0.3-0.6l0,0l-0.1-0.1l0-0.1l0-0.1
				c0-0.1-0.1-0.1-0.1-0.1c-0.1-0.1-0.1-0.2-0.2-0.3c-0.1-0.3-0.1-0.5,0.1-0.8c0.2-0.3,0.4-0.4,0.6-0.5c0.3,0,0.5,0,0.8,0.2
				c0.2,0.1,0.4,0.3,0.5,0.5c0,0.1,0.1,0.1,0.1,0.2c0,0,0,0.1,0,0.1c0,0,0,0,0,0.1c0,0,0,0,0,0l-0.2,0l-0.2,0c0,0,0,0,0,0
				c0,0,0,0,0,0c0,0,0,0,0-0.1c0-0.1-0.1-0.1-0.1-0.1c-0.1-0.1-0.2-0.2-0.3-0.3c-0.4-0.2-0.6-0.2-0.8,0.1C66,23.8,66,23.9,66,24
				c0,0.1,0.1,0.3,0.3,0.5l0,0L66.4,24.6z"/>
		</g>
		<g>
			<path d="M70.4,30.5C70.4,30.5,70.4,30.5,70.4,30.5C70.4,30.5,70.3,30.5,70.4,30.5L70,30.2c0,0,0,0,0,0l0.4-1.8l0,0l-0.5-0.4
				l-1.1,1.2c0,0,0,0,0,0l-0.3-0.3c0,0,0,0,0,0L71,26c0,0,0,0,0,0l1,0.9c0.2,0.2,0.3,0.5,0.3,0.8c0,0.3-0.1,0.6-0.3,0.8
				c-0.2,0.2-0.4,0.3-0.6,0.3c-0.2,0-0.5,0-0.7-0.1L70.4,30.5z M71,28.2c0.1,0.1,0.3,0.2,0.4,0.1s0.3-0.1,0.4-0.2
				c0.1-0.1,0.2-0.3,0.2-0.4c0-0.2-0.1-0.3-0.2-0.4l-0.7-0.6l-0.8,0.9L71,28.2z"/>
		</g>
		<g>
			<path d="M74.2,29.1C74.3,29.1,74.3,29.1,74.2,29.1l-2.8,2.6c0,0,0,0,0,0l-0.3-0.3c0,0,0,0,0,0l2.8-2.5c0,0,0,0,0,0L74.2,29.1z"/>
		</g>
		<g>
			<path d="M75.7,34C75.7,34,75.7,34,75.7,34l-1.1,0.8c0,0,0,0,0,0l-0.1,0c-0.5-0.1-0.9-0.3-1.2-0.7c-0.2-0.2-0.3-0.5-0.4-0.7
				c-0.1-0.3-0.1-0.5,0-0.8c0-0.3,0.1-0.5,0.3-0.7c0.2-0.2,0.3-0.4,0.6-0.6c0.4-0.3,0.9-0.4,1.4-0.3c0.5,0.1,0.9,0.3,1.2,0.7
				c0.3,0.4,0.4,0.9,0.3,1.4c0,0,0,0,0,0l-0.4-0.1c0,0,0,0,0,0c0.1-0.4,0-0.8-0.3-1.1c-0.2-0.3-0.5-0.5-0.9-0.5
				c-0.4-0.1-0.7,0-1,0.2c-0.4,0.2-0.6,0.5-0.7,0.9c-0.1,0.4,0,0.8,0.2,1.1c0.2,0.3,0.5,0.5,0.8,0.5l0.5-0.4l-0.4-0.5c0,0,0,0,0,0
				l0.3-0.2c0,0,0,0,0,0L75.7,34z"/>
		</g>
		<g>
			<path d="M79.4,36.8C79.4,36.8,79.4,36.8,79.4,36.8L76,38.6c0,0,0,0,0,0l-0.2-0.4c0,0,0,0,0,0l1.5-0.8l-0.8-1.6L75,36.6
				c0,0,0,0,0,0l-0.2-0.4c0,0,0,0,0,0l3.4-1.7c0,0,0,0,0,0l0.2,0.4c0,0,0,0,0,0l-1.5,0.7l0.8,1.6l1.5-0.7c0,0,0,0,0,0L79.4,36.8z"/>
		</g>
		<g>
			<path d="M80.8,40.6C80.8,40.6,80.8,40.7,80.8,40.6l-0.4,0.2c0,0,0,0,0,0L80,39.9L76.9,41c0,0,0,0,0,0l-0.1-0.4c0,0,0,0,0,0
				l3.1-1.1l-0.3-0.9c0,0,0,0,0,0l0.4-0.1c0,0,0,0,0,0L80.8,40.6z"/>
		</g>
	</g>
	<g>
		<g>
			<path class="st0" d="M51,102.7h-0.7c-15,0-27.1-12.1-27.1-27.1V49.7c0-15,12.1-27.1,27.1-27.1H51c15,0,27.1,12.1,27.1,27.1v25.8
				C78.1,90.5,66,102.7,51,102.7z"/>
		</g>
	</g>
	<g>
		<g>
			<path d="M26.8,85.7C26.9,85.7,26.8,85.7,26.8,85.7l-3.5,1.6c0,0,0,0,0,0L23.2,87c0,0,0,0,0,0l0.9-1.6l-1.8-0.1c0,0,0,0,0,0
				l-0.2-0.3c0,0,0,0,0,0l3.2-2c0,0,0,0,0,0l0.2,0.3c0,0,0,0,0,0L23,84.8l1.6,0.1c0,0,0,0,0,0l0.1,0.1c0,0,0,0,0,0l-0.8,1.4l2.7-1.2
				c0,0,0,0,0,0L26.8,85.7z"/>
		</g>
		<g>
			<path d="M27.8,87.1C27.8,87.1,27.8,87.1,27.8,87.1l-3.1,2.2c0,0,0,0,0,0l-0.2-0.3c0,0,0,0,0,0l3.1-2.1c0,0,0,0,0,0L27.8,87.1z"/>
		</g>
		<g>
			<path d="M30,90C30,90,30,90,30,90l-0.3,0.3c0,0,0,0,0,0L29,89.5l-2.6,2.1c0,0,0,0,0,0l-0.3-0.3c0,0,0,0,0,0l2.6-2.1l-0.6-0.8
				c0,0,0,0,0,0l0.3-0.3c0,0,0,0,0,0L30,90z"/>
		</g>
		<g>
			<path d="M32.7,92.6C32.7,92.6,32.7,92.6,32.7,92.6l-2.6,2.8c0,0,0,0,0,0l-0.3-0.3c0,0,0,0,0,0l1.1-1.2l-1.3-1.2l-1.1,1.2
				c0,0,0,0,0,0l-0.3-0.3c0,0,0,0,0,0l2.6-2.7c0,0,0,0,0,0l0.3,0.3c0,0,0,0,0,0l-1.1,1.2l1.3,1.2l1.1-1.2c0,0,0,0,0,0L32.7,92.6z"/>
		</g>
		<g>
			<path d="M36.5,95.3C36.5,95.3,36.5,95.3,36.5,95.3l-0.7,4.1c0,0,0,0,0,0c0,0,0,0,0,0l-0.4-0.2c0,0,0,0,0,0l0.3-1.6l-1.1-0.7
				l-1.3,1c0,0,0,0,0,0l-0.4-0.2c0,0,0,0,0,0c0,0,0,0,0,0l3.3-2.4c0,0,0,0,0,0L36.5,95.3z M35.8,97.1l0.2-1.2l-1,0.8L35.8,97.1z"/>
		</g>
		<g>
			<path d="M40.9,99.2C40.9,99.2,41,99.2,40.9,99.2l0.1,0.1c0,0,0.1,0.1,0.1,0.1c0.1,0.1,0.2,0.2,0.2,0.3c0.2,0.3,0.2,0.6,0.1,0.8
				c-0.1,0.3-0.3,0.5-0.6,0.6c-0.3,0.1-0.6,0.1-0.9,0c-0.3-0.1-0.5-0.2-0.7-0.4c-0.1-0.1-0.1-0.1-0.2-0.2c0,0,0-0.1-0.1-0.1
				c0,0,0,0,0-0.1c0,0,0,0,0,0l0.4-0.2c0,0,0,0,0,0c0,0,0,0,0,0c0,0,0,0,0,0.1c0,0.1,0.1,0.1,0.1,0.2c0.1,0.1,0.3,0.2,0.5,0.3
				c0.5,0.2,0.8,0.1,0.9-0.3c0.1-0.1,0-0.3,0-0.4c-0.1-0.1-0.2-0.3-0.4-0.5l0,0l-0.1-0.1l-0.1,0l-0.1-0.1c0,0-0.1-0.1-0.1-0.1
				c-0.1-0.1-0.2-0.2-0.2-0.3c-0.1-0.3-0.2-0.5-0.1-0.8c0.1-0.3,0.3-0.5,0.5-0.6c0.2-0.1,0.5-0.1,0.8,0c0.2,0.1,0.4,0.2,0.6,0.4
				c0.1,0.1,0.1,0.1,0.2,0.2c0,0,0,0.1,0,0.1c0,0,0,0,0,0.1c0,0,0,0,0,0L42,98.5l-0.2,0.1c0,0,0,0,0,0c0,0,0,0,0,0c0,0,0,0,0-0.1
				c0,0-0.1-0.1-0.1-0.1c-0.1-0.1-0.2-0.2-0.4-0.3c-0.4-0.1-0.6-0.1-0.7,0.2c0,0.1,0,0.2,0,0.4c0.1,0.1,0.2,0.2,0.3,0.4L40.9,99.2
				L40.9,99.2z"/>
		</g>
		<g>
			<path d="M44.8,102.1C44.9,102.1,44.9,102.1,44.8,102.1l-0.1,0.5c0,0,0,0,0,0l-2-0.5c0,0,0,0,0,0l0.9-3.7c0,0,0,0,0,0l0.4,0.1
				c0,0,0,0,0,0l-0.8,3.2L44.8,102.1z"/>
		</g>
		<g>
			<path d="M47.1,99C47.2,99,47.2,99,47.1,99l-0.5,3.8c0,0,0,0,0,0l-0.4-0.1c0,0,0,0,0,0l0.5-3.7c0,0,0,0,0,0L47.1,99z"/>
		</g>
		<g>
			<path d="M51.5,101.1C51.5,101.1,51.5,101.2,51.5,101.1l0,1.3c0,0,0,0,0,0l0,0c-0.4,0.4-0.8,0.5-1.3,0.6c-0.3,0-0.5,0-0.8-0.2
				c-0.2-0.1-0.4-0.3-0.6-0.4c-0.2-0.2-0.3-0.4-0.4-0.7c-0.1-0.3-0.1-0.5-0.1-0.8c0-0.5,0.2-0.9,0.6-1.3c0.4-0.3,0.8-0.5,1.3-0.5
				c0.5,0,0.9,0.2,1.3,0.6c0,0,0,0,0,0.1l-0.3,0.3c0,0,0,0,0,0c-0.3-0.3-0.6-0.4-1-0.4c-0.3,0-0.7,0.1-0.9,0.4
				c-0.3,0.2-0.4,0.6-0.4,0.9c0,0.4,0.1,0.8,0.3,1.1c0.3,0.3,0.6,0.5,1,0.5c0.4,0,0.7-0.1,0.9-0.3l0-0.6l-0.6,0c0,0,0,0,0,0l0-0.4
				c0,0,0,0,0,0L51.5,101.1z"/>
		</g>
		<g>
			<path d="M55.5,98.9C55.5,98.9,55.5,98.9,55.5,98.9l0.5,3.8c0,0,0,0,0,0l-0.4,0c0,0,0,0,0,0l-0.2-1.6l-1.7,0.2l0.2,1.6
				c0,0,0,0,0,0l-0.4,0c0,0,0,0,0,0l-0.5-3.7c0,0,0,0,0,0l0.4,0c0,0,0,0,0,0l0.2,1.6l1.7-0.2L55,99c0,0,0,0,0,0L55.5,98.9z"/>
		</g>
		<g>
			<path d="M59,98.1C59,98.1,59,98.1,59,98.1l0.1,0.4c0,0,0,0,0,0l-0.9,0.2L59,102c0,0,0,0,0,0l-0.4,0.1c0,0,0,0,0,0l-0.8-3.2
				l-0.9,0.2c0,0,0,0,0,0l-0.1-0.4c0,0,0,0,0,0L59,98.1z"/>
		</g>
		<g>
			<path d="M63,96.4C63,96.4,63,96.4,63,96.4l3,2.8c0,0,0,0,0,0s0,0,0,0l-0.4,0.2c0,0,0,0,0,0l-1.2-1.1l-1.2,0.6l0.1,1.6
				c0,0,0,0,0,0l-0.4,0.2c0,0,0,0,0,0c0,0,0,0,0,0l-0.3-4.1c0,0,0,0,0,0L63,96.4z M64.1,98l-0.9-0.9l0.1,1.3L64.1,98z"/>
		</g>
		<g>
			<path d="M69.4,96.7C69.4,96.7,69.4,96.7,69.4,96.7c-0.1,0.4-0.3,0.7-0.7,0.9c-0.2,0.1-0.5,0.2-0.7,0.3c-0.2,0-0.5,0-0.7,0
				c-0.5-0.1-0.9-0.4-1.2-0.9c-0.2-0.4-0.3-0.9-0.2-1.3c0.1-0.5,0.3-0.8,0.7-1.1c0.3-0.3,0.7-0.4,1.1-0.4c0,0,0,0,0,0l0,0.4
				c0,0,0,0,0,0c-0.3,0-0.6,0.1-0.8,0.3c-0.3,0.2-0.4,0.5-0.5,0.9c-0.1,0.4,0,0.7,0.2,1c0.2,0.3,0.5,0.5,0.9,0.6
				c0.4,0.1,0.7,0,1.1-0.2c0.2-0.2,0.4-0.4,0.5-0.6c0,0,0,0,0,0L69.4,96.7z"/>
		</g>
		<g>
			<path d="M72.5,94C72.5,94,72.5,94.1,72.5,94c-0.1,0.4-0.3,0.7-0.5,0.9c-0.2,0.2-0.4,0.3-0.7,0.4c-0.2,0.1-0.5,0.1-0.7,0.1
				c-0.5-0.1-1-0.3-1.3-0.7c-0.3-0.4-0.4-0.8-0.4-1.3c0-0.5,0.2-0.9,0.5-1.2c0.3-0.3,0.7-0.5,1.1-0.5c0,0,0,0,0,0l0.1,0.4
				c0,0,0,0,0,0c-0.3,0-0.6,0.2-0.8,0.4c-0.2,0.3-0.4,0.6-0.4,0.9c0,0.4,0.1,0.7,0.3,1c0.3,0.3,0.6,0.5,1,0.5c0.4,0,0.7-0.1,1-0.3
				c0.2-0.2,0.3-0.4,0.4-0.7c0,0,0,0,0,0L72.5,94z"/>
		</g>
		<g>
			<path d="M72.5,88.8C72.6,88.8,72.6,88.8,72.5,88.8l0.4,0.3c0,0,0,0,0,0l-1.3,1.5l0.9,0.8l0.9-1.1c0,0,0,0,0,0l0.3,0.3
				c0,0,0,0,0,0l-0.9,1.1l0.9,0.8l1.3-1.5c0,0,0,0,0,0l0.3,0.3c0,0,0,0,0,0l-1.6,1.8c0,0,0,0,0,0L71,90.7c0,0,0,0,0,0L72.5,88.8z"/>
		</g>
		<g>
			<path d="M74.7,85.7C74.7,85.7,74.7,85.7,74.7,85.7l3.2,2.1c0,0,0,0,0,0L77.8,88c0,0,0,0,0,0l-3.4,0.1l2.3,1.5c0,0,0,0,0,0
				L76.5,90c0,0,0,0,0,0L73.3,88c0,0,0,0,0,0l0.1-0.1c0,0,0,0,0,0l3.4-0.1l-2.3-1.5c0,0,0,0,0,0L74.7,85.7z"/>
		</g>
		<g>
			<path d="M76.3,82.6C76.4,82.5,76.4,82.5,76.3,82.6l0.4,0.2c0,0,0,0,0,0l-0.4,0.9l3,1.5c0,0,0,0,0,0l-0.2,0.4c0,0,0,0,0,0l-3-1.5
				l-0.4,0.9c0,0,0,0,0,0l-0.4-0.2c0,0,0,0,0,0L76.3,82.6z"/>
		</g>
	</g>
	<g>
		<g>
			<path d="M68.7,62.8c-0.5-0.3-0.8-0.7-0.9-1c-0.2-0.4-0.3-0.9-0.3-1.4v-4.9c0-0.5-0.2-0.9-0.5-1.3c-0.3-0.3-0.7-0.5-1.1-0.6
				c-0.3,0-0.5-0.1-0.6-0.2c-0.1-0.1-0.2-0.3-0.2-0.4s0.1-0.3,0.2-0.4s0.3-0.2,0.5-0.2c0.7,0,1.3,0.2,1.8,0.7c0.6,0.6,1,1.4,1,2.3
				v4.9c0,0.5,0.2,0.9,0.5,1.3s0.7,0.5,1.2,0.6c0.2,0,0.4,0.1,0.5,0.2c0.1,0.1,0.2,0.2,0.2,0.4c0,0.2-0.1,0.3-0.2,0.4
				c-0.1,0.1-0.3,0.2-0.5,0.2c-0.5,0-0.9,0.2-1.2,0.6s-0.5,0.8-0.5,1.3v4.9c0,0.9-0.3,1.6-0.8,2.1c-0.5,0.6-1.2,0.9-2,0.9
				c-0.2,0-0.4-0.1-0.5-0.2s-0.2-0.3-0.2-0.4c0-0.2,0.1-0.3,0.2-0.4c0.1-0.1,0.3-0.1,0.6-0.2c0.5,0,0.8-0.2,1.1-0.6s0.4-0.8,0.4-1.3
				v-4.9c0-0.6,0.1-1,0.3-1.4S68.3,63.1,68.7,62.8z"/>
		</g>
	</g>
	<g>
		<g>
			<path d="M46.5,63l-7.3,15.6C39.2,78.9,39,79,38.8,79c-0.1,0-0.2,0-0.3-0.1c-0.1-0.1-0.1-0.2-0.1-0.3c0-0.1,0-0.2,0.1-0.4
				l7.3-15.6c0.1-0.2,0.2-0.3,0.2-0.3c0.1,0,0.2-0.1,0.3-0.1c0.1,0,0.2,0,0.3,0.1c0.1,0.1,0.1,0.2,0.1,0.3
				C46.7,62.8,46.6,62.9,46.5,63z"/>
		</g>
	</g>
	<g>
		<g>
			<path d="M51.6,124.2h-2.4c-25.8,0-46.8-21-46.8-46.8V46.8h1v30.5c0,25.3,20.6,45.8,45.8,45.8h2.4c23.7,0,43.8-18.5,45.7-42.1
				c0.1-1.3,0.2-2.5,0.2-3.8V46.8C97.5,21.6,76.9,1,51.6,1h-2.4C25.9,1,6.3,18.5,3.7,41.7l-1-0.1C5.3,17.9,25.4,0,49.3,0h2.4
				c25.8,0,46.8,21,46.8,46.8v30.5c0,1.3-0.1,2.6-0.2,3.9C96.3,105.3,75.8,124.2,51.6,124.2z"/>
		</g>
	</g>
	<g>
		<g>
			<g>
				<g>
					<path d="M37.8,81.6c-0.1,0-0.1,0-0.2,0c0,0-0.1,0-0.2-0.1c-0.1-0.1-0.1-0.2-0.1-0.3c0-0.1,0-0.1,0-0.2c0-0.1,0.1-0.1,0.1-0.1
						c0,0,0.1-0.1,0.2-0.1c0.2-0.1,0.4,0,0.5,0.1c0.1,0.1,0.1,0.2,0.1,0.3c0,0.1,0,0.1,0,0.2c0,0,0,0.1-0.1,0.1c0,0-0.1,0.1-0.2,0.1
						C38,81.6,37.9,81.6,37.8,81.6z"/>
				</g>
			</g>
			<g>
				<g>
					<path d="M51,94.1h-0.7c-6.1,0-11.3-3.4-14.5-9.5c-0.1-0.2,0-0.4,0.2-0.5c0.2-0.1,0.4,0,0.5,0.2c3,5.8,7.9,9.1,13.8,9.1H51
						c6.6,0,12.5-4.6,15.4-11.8H39.9c-0.2,0-0.4-0.2-0.4-0.4s0.2-0.4,0.4-0.4h27c0.1,0,0.3,0.1,0.3,0.2c0.1,0.1,0.1,0.2,0,0.4
						C64.4,89.1,58,94.1,51,94.1z"/>
				</g>
			</g>
		</g>
	</g>
	<g>
		<g>
			<path d="M11.3,62.4C11.3,62.4,11.4,62.4,11.3,62.4l0.1,0.1c0.1,0,0.1,0.1,0.2,0.1c0.1,0.1,0.2,0.1,0.3,0.2
				c0.2,0.2,0.3,0.4,0.3,0.7c0,0.3-0.1,0.5-0.3,0.7c-0.2,0.2-0.5,0.3-0.8,0.3c-0.3,0-0.5-0.1-0.7-0.2c-0.1,0-0.2-0.1-0.2-0.1
				c0,0-0.1,0-0.1-0.1c0,0,0,0,0,0c0,0,0,0,0,0l0.3-0.3c0,0,0,0,0,0c0,0,0,0,0,0c0,0,0,0,0.1,0c0,0,0.1,0.1,0.2,0.1
				c0.2,0.1,0.3,0.1,0.5,0.1c0.5,0,0.7-0.2,0.7-0.5c0-0.1-0.1-0.3-0.2-0.4c-0.1-0.1-0.3-0.2-0.5-0.3l0,0L11,62.7l-0.1,0l-0.1,0
				c-0.1,0-0.1,0-0.1-0.1c-0.1-0.1-0.2-0.1-0.3-0.2c-0.2-0.2-0.3-0.4-0.3-0.6c0-0.3,0.1-0.5,0.3-0.6c0.2-0.2,0.4-0.2,0.8-0.2
				c0.2,0,0.4,0.1,0.6,0.2c0.1,0,0.1,0.1,0.2,0.1c0,0,0,0,0.1,0.1c0,0,0,0,0,0c0,0,0,0,0,0L12,61.4l-0.1,0.1c0,0,0,0,0,0
				c0,0,0,0,0,0c0,0,0,0,0,0c0,0-0.1-0.1-0.1-0.1c-0.1-0.1-0.3-0.1-0.4-0.1c-0.4,0-0.6,0.1-0.6,0.4c0,0.1,0,0.2,0.1,0.3
				c0.1,0.1,0.2,0.2,0.4,0.2l0,0L11.3,62.4z"/>
			<path d="M11.1,64.5c-0.3,0-0.5-0.1-0.8-0.2c-0.1,0-0.2-0.1-0.2-0.1L10,64.1c0,0,0,0-0.1-0.1c0,0,0-0.1,0-0.1c0,0,0-0.1,0-0.1
				l0.3-0.3c0,0,0.1,0,0.2,0l0,0c0,0,0,0,0.1,0c0,0,0.1,0.1,0.1,0.1c0.1,0.1,0.3,0.1,0.5,0.1c0.5,0,0.6-0.2,0.6-0.4
				c0-0.1,0-0.2-0.1-0.3c-0.1-0.1-0.3-0.2-0.5-0.3l-0.2-0.1c-0.1,0-0.1,0-0.1-0.1c-0.1-0.1-0.2-0.1-0.3-0.2
				c-0.2-0.2-0.3-0.4-0.3-0.7c0-0.3,0.1-0.5,0.3-0.7c0.2-0.2,0.5-0.3,0.8-0.3c0.2,0,0.5,0.1,0.7,0.2c0.1,0,0.1,0.1,0.2,0.1
				c0,0,0,0,0.1,0.1c0,0,0,0,0.1,0c0,0,0,0,0,0.1c0,0,0,0.1,0,0.1l-0.3,0.3c0,0-0.1,0-0.2,0c0,0,0,0,0,0l0,0c0,0-0.1,0-0.1-0.1
				c-0.1-0.1-0.3-0.1-0.4-0.1c-0.4,0-0.5,0.2-0.5,0.3c0,0.1,0,0.2,0.1,0.2c0.1,0.1,0.2,0.1,0.4,0.2c0,0,0,0,0,0l0.1,0
				c0,0,0.1,0,0.1,0l0.1,0c0.1,0,0.1,0.1,0.2,0.1c0.1,0.1,0.2,0.1,0.3,0.2c0.2,0.2,0.4,0.5,0.4,0.8c0,0.3-0.1,0.6-0.3,0.8
				C11.8,64.4,11.5,64.5,11.1,64.5z M10.1,63.9L10.1,63.9c0.1,0.1,0.2,0.1,0.3,0.2c0.2,0.1,0.4,0.2,0.7,0.2c0.3,0,0.6-0.1,0.8-0.2
				c0.2-0.2,0.3-0.4,0.3-0.6c0-0.2-0.1-0.5-0.3-0.6c-0.1-0.1-0.2-0.1-0.3-0.2c0,0-0.1,0-0.1-0.1l-0.1,0c0,0,0,0-0.1,0c0,0,0,0,0,0
				l-0.1-0.1c0,0,0,0,0,0c-0.2-0.1-0.4-0.2-0.4-0.2c-0.1-0.1-0.2-0.2-0.2-0.4c0-0.2,0.1-0.5,0.7-0.5c0.2,0,0.3,0,0.5,0.1
				c0,0,0.1,0,0.1,0.1l0,0l0.2-0.2c0,0,0,0-0.1,0c-0.1,0-0.1-0.1-0.2-0.1C11.6,61,11.4,61,11.2,61c-0.3,0-0.5,0.1-0.7,0.2
				c-0.2,0.1-0.2,0.3-0.2,0.6c0,0.2,0.1,0.4,0.3,0.6c0.1,0.1,0.2,0.1,0.3,0.2c0,0,0.1,0,0.1,0.1l0.2,0.1c0.3,0.1,0.4,0.2,0.5,0.3
				c0.1,0.1,0.2,0.3,0.2,0.4c0,0.3-0.1,0.6-0.8,0.6c-0.2,0-0.4,0-0.5-0.1c-0.1,0-0.1-0.1-0.2-0.1c0,0,0,0-0.1,0l0,0L10.1,63.9z
				 M10.1,63.9C10.1,63.9,10.1,63.9,10.1,63.9C10.1,63.9,10.1,63.9,10.1,63.9z M10.3,63.7L10.3,63.7L10.3,63.7z M11.8,61.5
				C11.8,61.5,11.8,61.5,11.8,61.5L11.8,61.5z M12.1,61.3C12.1,61.3,12.1,61.3,12.1,61.3C12.1,61.3,12.1,61.3,12.1,61.3z M12.1,61.2
				L12.1,61.2L12.1,61.2z"/>
		</g>
		<g>
			<path d="M13.8,60.9C13.9,60.9,13.9,60.9,13.8,60.9l0,3.5c0,0,0,0,0,0h-0.4c0,0,0,0,0,0v-3.4c0,0,0,0,0,0H13.8z"/>
			<path d="M13.8,64.5h-0.4c-0.1,0-0.1-0.1-0.1-0.1v-3.4c0-0.1,0.1-0.1,0.1-0.1h0.4c0.1,0,0.1,0,0.1,0.1v3.4
				C14,64.4,13.9,64.5,13.8,64.5z M13.5,64.3h0.3V61h-0.3V64.3z M13.8,61L13.8,61L13.8,61z"/>
		</g>
		<g>
			<path d="M17.7,60.9C17.8,60.9,17.8,60.9,17.7,60.9l0,3.5c0,0,0,0,0,0h-0.2c0,0,0,0,0,0l-1.9-2.5v2.5c0,0,0,0,0,0h-0.4
				c0,0,0,0,0,0v-3.4c0,0,0,0,0,0h0.2c0,0,0,0,0,0l1.9,2.5v-2.5c0,0,0,0,0,0H17.7z"/>
			<path d="M17.7,64.5h-0.2c0,0-0.1,0-0.1,0l-1.7-2.3v2.2c0,0.1-0.1,0.1-0.1,0.1h-0.4c-0.1,0-0.1-0.1-0.1-0.1v-3.4
				c0-0.1,0.1-0.1,0.1-0.1h0.2c0,0,0.1,0,0.1,0.1l1.7,2.3v-2.2c0-0.1,0-0.1,0.1-0.1h0.4c0.1,0,0.1,0,0.1,0.1v3.4
				C17.9,64.4,17.8,64.5,17.7,64.5z M17.6,64.3L17.6,64.3C17.6,64.3,17.6,64.3,17.6,64.3z M17.6,64.3L17.6,64.3l0.1-3.3h-0.2v2.4
				c0,0,0,0.1-0.1,0.1c0,0-0.1,0-0.1,0L15.4,61h-0.1v3.3h0.2v-2.4c0,0,0-0.1,0.1-0.1c0,0,0.1,0,0.1,0L17.6,64.3z M17.7,61L17.7,61
				L17.7,61z M15.4,60.9C15.4,60.9,15.4,60.9,15.4,60.9L15.4,60.9z"/>
		</g>
		<g>
			<path d="M21.6,64C21.6,64.1,21.6,64.1,21.6,64c-0.3,0.2-0.6,0.3-1,0.3c-0.2,0-0.5,0-0.7-0.1c-0.2-0.1-0.4-0.2-0.6-0.4
				c-0.3-0.4-0.5-0.8-0.5-1.3c0-0.4,0.2-0.8,0.5-1.1c0.3-0.3,0.7-0.5,1.1-0.5c0.4,0,0.8,0.1,1.1,0.3c0,0,0,0,0,0l-0.2,0.3
				c0,0,0,0,0,0c-0.2-0.2-0.5-0.2-0.8-0.2c-0.3,0-0.6,0.2-0.8,0.4c-0.2,0.2-0.3,0.5-0.4,0.9c0,0.4,0.1,0.7,0.4,0.9
				c0.3,0.3,0.6,0.4,0.9,0.4c0.3,0,0.5-0.1,0.7-0.2c0,0,0,0,0,0L21.6,64z"/>
			<path d="M20.7,64.5c-0.3,0-0.5-0.1-0.7-0.2c-0.2-0.1-0.4-0.2-0.6-0.4c-0.4-0.4-0.5-0.8-0.5-1.4c0-0.5,0.2-0.8,0.5-1.2
				c0.3-0.3,0.7-0.5,1.2-0.5c0.4,0,0.8,0.1,1.1,0.3c0.1,0,0.1,0.1,0,0.2l-0.2,0.3c0,0.1-0.1,0.1-0.2,0c-0.2-0.1-0.5-0.2-0.8-0.2
				c-0.3,0-0.6,0.2-0.8,0.4c-0.2,0.2-0.3,0.5-0.3,0.8c0,0.3,0.1,0.6,0.4,0.9c0.2,0.2,0.5,0.4,0.9,0.4c0.2,0,0.5-0.1,0.7-0.2
				c0.1,0,0.1,0,0.2,0l0.2,0.3c0,0,0,0,0,0c0,0,0,0.1,0,0.1c0,0,0,0.1-0.1,0.1C21.4,64.4,21,64.5,20.7,64.5z M20.7,61
				c0,0-0.1,0-0.1,0c-0.4,0-0.8,0.2-1.1,0.5c-0.3,0.3-0.4,0.7-0.5,1.1c0,0.5,0.1,0.9,0.5,1.2c0.2,0.2,0.3,0.3,0.5,0.4
				c0.5,0.2,1.1,0.2,1.5-0.1l-0.2-0.2c-0.2,0.1-0.5,0.2-0.7,0.2c-0.4,0-0.7-0.1-1-0.4c-0.3-0.3-0.4-0.6-0.4-1c0-0.4,0.1-0.7,0.4-0.9
				c0.2-0.3,0.6-0.4,0.9-0.4c0.3,0,0.6,0,0.8,0.2l0.2-0.2C21.2,61,21,61,20.7,61z M21.6,64L21.6,64L21.6,64z M21.3,63.8
				C21.3,63.8,21.3,63.8,21.3,63.8L21.3,63.8z M21.3,61.5C21.3,61.5,21.3,61.5,21.3,61.5L21.3,61.5z"/>
		</g>
		<g>
			<path d="M24.9,60.9C25,60.9,25,60.9,24.9,60.9l0,0.4c0,0,0,0,0,0h-1.9v1.1h1.3c0,0,0,0,0,0v0.4c0,0,0,0,0,0h-1.3v1.1h1.9
				c0,0,0,0,0,0v0.4c0,0,0,0,0,0h-2.3c0,0,0,0,0,0v-3.4c0,0,0,0,0,0H24.9z"/>
			<path d="M24.9,64.5h-2.3c-0.1,0-0.1-0.1-0.1-0.1v-3.4c0-0.1,0.1-0.1,0.1-0.1h2.3c0.1,0,0.1,0.1,0.1,0.1v0.4
				c0,0.1-0.1,0.1-0.1,0.1h-1.8v0.9h1.3c0.1,0,0.1,0.1,0.1,0.1v0.4c0,0.1-0.1,0.1-0.1,0.1h-1.3v0.9h1.8c0.1,0,0.1,0.1,0.1,0.1v0.4
				C25.1,64.4,25,64.5,24.9,64.5z M22.7,64.3h2.2V64h-1.8c0,0-0.1,0-0.1-0.1v-1.1c0,0,0-0.1,0.1-0.1h1.3v-0.3h-1.3
				c0,0-0.1,0-0.1-0.1v-1.1c0,0,0-0.1,0.1-0.1h1.8V61h-2.2V64.3z M24.9,61L24.9,61L24.9,61z"/>
		</g>
	</g>
	<g>
		<g>
			<path d="M81.7,63.9C81.7,63.9,81.7,64,81.7,63.9l0,0.4c0,0,0,0,0,0h-2.1c0,0,0,0,0,0s0,0,0,0l1.5-2.3c0-0.1,0.1-0.2,0.1-0.3
				c0-0.1,0-0.3-0.1-0.4c-0.1-0.1-0.2-0.1-0.4-0.1c-0.1,0-0.2,0-0.3,0.1s-0.1,0.1-0.2,0.2c0,0,0,0,0,0l-0.3-0.1c0,0,0,0,0,0
				c0.1-0.2,0.2-0.3,0.3-0.5s0.3-0.2,0.5-0.2c0.3,0,0.5,0.1,0.7,0.3c0.2,0.2,0.3,0.4,0.3,0.7c0,0.2,0,0.3-0.1,0.5l0,0l-1.1,1.7H81.7
				z"/>
			<path d="M81.7,64.5h-2.1c0,0-0.1,0-0.1-0.1c0,0,0-0.1,0-0.1L81,62c0-0.1,0.1-0.1,0.1-0.2c0-0.1,0-0.2-0.1-0.3
				c-0.1-0.1-0.4-0.2-0.5,0c-0.1,0.1-0.1,0.1-0.2,0.2c0,0.1-0.1,0.1-0.1,0.1l-0.3-0.1c0,0-0.1,0-0.1-0.1c0,0,0-0.1,0-0.1
				c0.1-0.2,0.2-0.4,0.4-0.5c0.2-0.1,0.4-0.2,0.6-0.2c0.3,0,0.5,0.1,0.7,0.3c0.2,0.2,0.3,0.4,0.3,0.7c0,0.2,0,0.4-0.1,0.5l-1,1.5
				h1.2c0.1,0,0.1,0.1,0.1,0.1v0.4C81.8,64.4,81.7,64.5,81.7,64.5z M79.7,64.3h1.9V64h-1.3c0,0-0.1,0-0.1,0c0,0,0-0.1,0-0.1l1.1-1.7
				c0.1-0.1,0.1-0.3,0.1-0.4c0-0.2-0.1-0.4-0.2-0.6C81.1,61,80.9,61,80.7,61c-0.2,0-0.3,0.1-0.5,0.2c-0.1,0.1-0.2,0.2-0.3,0.4
				l0.2,0.1c0-0.1,0.1-0.2,0.2-0.2c0.2-0.2,0.6-0.1,0.8,0.1c0.1,0.1,0.2,0.3,0.2,0.4c0,0.1,0,0.2-0.1,0.3L79.7,64.3z M81.7,64
				L81.7,64L81.7,64z M80.1,61.6C80.1,61.6,80.1,61.6,80.1,61.6C80.1,61.6,80.1,61.6,80.1,61.6z"/>
		</g>
		<g>
			<path d="M83.9,64.2c-0.2-0.1-0.4-0.2-0.6-0.4c-0.2-0.2-0.3-0.3-0.4-0.6c-0.1-0.2-0.1-0.4-0.1-0.7c0-0.2,0-0.5,0.1-0.7
				c0.1-0.2,0.2-0.4,0.4-0.6c0.2-0.2,0.3-0.3,0.6-0.4c0.2-0.1,0.4-0.1,0.7-0.1c0.2,0,0.5,0,0.7,0.1c0.2,0.1,0.4,0.2,0.6,0.4
				c0.2,0.2,0.3,0.3,0.4,0.6c0.1,0.2,0.1,0.4,0.1,0.7c0,0.2,0,0.5-0.1,0.7c-0.1,0.2-0.2,0.4-0.4,0.6c-0.2,0.2-0.3,0.3-0.6,0.4
				c-0.2,0.1-0.4,0.1-0.7,0.1C84.4,64.4,84.1,64.3,83.9,64.2z M83.7,61.7c-0.1,0.1-0.2,0.3-0.3,0.4c-0.1,0.2-0.1,0.3-0.1,0.5
				c0,0.4,0.1,0.7,0.4,0.9c0.1,0.1,0.3,0.2,0.4,0.3c0.2,0.1,0.3,0.1,0.5,0.1c0.4,0,0.7-0.1,0.9-0.4c0.1-0.1,0.2-0.3,0.3-0.4
				c0.1-0.2,0.1-0.3,0.1-0.5c0-0.4-0.1-0.7-0.4-0.9c-0.1-0.1-0.3-0.2-0.4-0.3c-0.2-0.1-0.3-0.1-0.5-0.1
				C84.2,61.3,83.9,61.4,83.7,61.7z"/>
			<path d="M84.6,64.5c-0.2,0-0.5,0-0.7-0.1c0,0,0,0,0,0c-0.2-0.1-0.4-0.2-0.6-0.4c-0.2-0.2-0.3-0.4-0.4-0.6
				c-0.1-0.2-0.1-0.5-0.1-0.7c0-0.2,0-0.5,0.1-0.7c0.1-0.2,0.2-0.4,0.4-0.6c0.2-0.2,0.4-0.3,0.6-0.4c0.5-0.2,1-0.2,1.4,0
				c0.2,0.1,0.4,0.2,0.6,0.4c0.2,0.2,0.3,0.4,0.4,0.6c0.1,0.2,0.1,0.5,0.1,0.7c0,0.2,0,0.5-0.1,0.7c-0.1,0.2-0.2,0.4-0.4,0.6
				c-0.2,0.2-0.4,0.3-0.6,0.4C85.1,64.4,84.9,64.5,84.6,64.5z M84,64.1c0.4,0.2,0.9,0.2,1.3,0c0.2-0.1,0.4-0.2,0.5-0.4
				c0.2-0.2,0.3-0.3,0.4-0.5c0.1-0.2,0.1-0.4,0.1-0.6c0-0.2,0-0.4-0.1-0.6c-0.1-0.2-0.2-0.4-0.4-0.5c-0.2-0.2-0.3-0.3-0.5-0.4
				c-0.4-0.2-0.9-0.2-1.3,0c-0.2,0.1-0.4,0.2-0.5,0.4c-0.2,0.2-0.3,0.3-0.4,0.5c-0.1,0.2-0.1,0.4-0.1,0.6c0,0.2,0,0.4,0.1,0.6
				c0.1,0.2,0.2,0.4,0.4,0.5C83.6,63.9,83.8,64.1,84,64.1z M84.6,64c-0.2,0-0.4,0-0.6-0.1c-0.2-0.1-0.3-0.2-0.5-0.3
				c-0.3-0.3-0.4-0.6-0.4-1c0-0.2,0-0.4,0.1-0.6c0.1-0.2,0.2-0.3,0.3-0.5l0,0c0.3-0.3,0.6-0.4,1-0.4c0.2,0,0.4,0,0.6,0.1
				c0.2,0.1,0.3,0.2,0.5,0.3c0.3,0.3,0.4,0.6,0.4,1c0,0.2,0,0.4-0.1,0.6c-0.1,0.2-0.2,0.3-0.3,0.5C85.3,63.9,85,64,84.6,64z
				 M84.6,61.4c-0.3,0-0.6,0.1-0.9,0.4v0c-0.1,0.1-0.2,0.2-0.3,0.4c-0.1,0.2-0.1,0.3-0.1,0.5c0,0.3,0.1,0.6,0.4,0.9
				c0.1,0.1,0.2,0.2,0.4,0.3c0.2,0.1,0.3,0.1,0.5,0.1c0.3,0,0.6-0.1,0.9-0.4c0.1-0.1,0.2-0.2,0.3-0.4c0.1-0.2,0.1-0.3,0.1-0.5
				c0-0.3-0.1-0.6-0.4-0.9c-0.1-0.1-0.2-0.2-0.4-0.3C84.9,61.4,84.8,61.4,84.6,61.4z M83.7,61.7L83.7,61.7L83.7,61.7z"/>
		</g>
		<g>
			<path d="M87.9,60.9C87.9,60.9,87.9,60.9,87.9,60.9l0.3,0c0,0,0,0,0,0v3.4c0,0,0,0,0,0h-0.4c0,0,0,0,0,0v-2.8l-0.1,0.1
				c0,0,0,0,0,0l-0.3-0.3c0,0,0,0,0,0L87.9,60.9z"/>
			<path d="M88.2,64.5h-0.4c-0.1,0-0.1-0.1-0.1-0.1v-2.6c0,0-0.1,0-0.2,0l-0.3-0.3c0,0,0-0.1,0-0.1c0,0,0-0.1,0-0.1l0.5-0.5
				c0,0,0.1,0,0.1,0h0.3c0.1,0,0.1,0.1,0.1,0.1v3.4C88.4,64.4,88.3,64.5,88.2,64.5z M87.9,64.3h0.2V61H88l-0.4,0.4l0.2,0.2l0.1-0.1
				c0,0,0.1,0,0.1,0c0,0,0.1,0,0.1,0.1V64.3z M87.6,61.6C87.6,61.6,87.6,61.6,87.6,61.6L87.6,61.6z M87.7,61.6L87.7,61.6
				C87.7,61.6,87.7,61.6,87.7,61.6z M87.5,61.4L87.5,61.4C87.5,61.4,87.5,61.4,87.5,61.4z M87.5,61.3L87.5,61.3
				C87.5,61.4,87.5,61.4,87.5,61.3z M88,60.9C88,60.9,88,60.9,88,60.9S88,60.9,88,60.9z M87.9,60.9L87.9,60.9L87.9,60.9z"/>
		</g>
		<g>
			<path d="M91.4,62.5c0.1,0.1,0.2,0.2,0.3,0.4c0.1,0.1,0.1,0.3,0.1,0.5c0,0.3-0.1,0.5-0.3,0.7s-0.4,0.3-0.7,0.3
				c-0.3,0-0.5-0.1-0.7-0.3c-0.2-0.2-0.3-0.4-0.3-0.7c0-0.2,0-0.3,0.1-0.5c0.1-0.1,0.2-0.3,0.3-0.4c-0.1-0.1-0.2-0.2-0.2-0.3
				c-0.1-0.1-0.1-0.3-0.1-0.4c0-0.3,0.1-0.5,0.3-0.6c0.2-0.2,0.4-0.3,0.7-0.3s0.5,0.1,0.7,0.3c0.2,0.2,0.3,0.4,0.3,0.6
				c0,0.1,0,0.3-0.1,0.4C91.5,62.3,91.5,62.4,91.4,62.5z M90.8,64c0.2,0,0.3-0.1,0.4-0.2c0.1-0.1,0.2-0.3,0.2-0.4s-0.1-0.3-0.2-0.4
				c-0.1-0.1-0.3-0.2-0.4-0.2c-0.2,0-0.3,0.1-0.4,0.2c-0.1,0.1-0.2,0.3-0.2,0.4s0.1,0.3,0.2,0.4C90.4,63.9,90.6,64,90.8,64z
				 M90.8,61.3c-0.1,0-0.3,0-0.4,0.1c-0.1,0.1-0.1,0.2-0.1,0.4c0,0.1,0,0.3,0.1,0.4c0.1,0.1,0.2,0.2,0.4,0.2c0.1,0,0.3-0.1,0.4-0.2
				c0.1-0.1,0.1-0.2,0.1-0.4c0-0.1,0-0.3-0.1-0.4C91,61.3,90.9,61.3,90.8,61.3z"/>
			<path d="M90.8,64.5c-0.3,0-0.6-0.1-0.8-0.3c-0.2-0.2-0.3-0.5-0.3-0.8c0-0.2,0-0.4,0.1-0.5c0.1-0.1,0.2-0.2,0.3-0.3
				c-0.1-0.1-0.1-0.2-0.2-0.3c-0.1-0.1-0.1-0.3-0.1-0.4c0-0.3,0.1-0.5,0.3-0.7c0.2-0.2,0.4-0.3,0.7-0.3s0.5,0.1,0.7,0.3
				c0.2,0.2,0.3,0.4,0.3,0.7c0,0.2,0,0.3-0.1,0.4c0,0.1-0.1,0.2-0.2,0.3c0.1,0.1,0.2,0.2,0.3,0.3c0.1,0.2,0.1,0.3,0.1,0.5
				c0,0.3-0.1,0.6-0.3,0.8C91.3,64.3,91.1,64.5,90.8,64.5z M90.8,61c-0.2,0-0.4,0.1-0.6,0.2c-0.2,0.2-0.2,0.4-0.2,0.6
				c0,0.1,0,0.2,0.1,0.4c0.1,0.1,0.1,0.2,0.2,0.3c0,0,0,0,0,0.1c0,0,0,0.1,0,0.1c-0.1,0.1-0.2,0.2-0.3,0.3c-0.1,0.1-0.1,0.3-0.1,0.4
				c0,0.3,0.1,0.5,0.3,0.7c0.2,0.2,0.4,0.3,0.7,0.3c0.3,0,0.5-0.1,0.7-0.3c0.2-0.2,0.3-0.4,0.3-0.7c0-0.2,0-0.3-0.1-0.4
				c-0.1-0.1-0.2-0.2-0.3-0.3c0,0,0,0,0-0.1c0,0,0-0.1,0-0.1c0.1-0.1,0.2-0.2,0.2-0.3c0.1-0.1,0.1-0.2,0.1-0.4
				c0-0.2-0.1-0.4-0.2-0.6C91.2,61,91,61,90.8,61z M90.8,64c-0.2,0-0.4-0.1-0.5-0.2c-0.1-0.1-0.2-0.3-0.2-0.5s0.1-0.4,0.2-0.5
				c0.1-0.1,0.3-0.2,0.5-0.2c0.2,0,0.4,0.1,0.5,0.2c0.1,0.1,0.2,0.3,0.2,0.5s-0.1,0.4-0.2,0.5C91.1,64,91,64,90.8,64z M90.8,62.8
				c-0.1,0-0.3,0.1-0.4,0.2c-0.1,0.1-0.2,0.2-0.2,0.4c0,0.1,0.1,0.3,0.2,0.4c0.1,0.1,0.2,0.2,0.4,0.2c0.1,0,0.3-0.1,0.4-0.2
				c0.1-0.1,0.2-0.2,0.2-0.4c0-0.1-0.1-0.3-0.2-0.4C91,62.9,90.9,62.8,90.8,62.8z M90.8,62.4c-0.2,0-0.3-0.1-0.4-0.2
				c-0.1-0.1-0.2-0.3-0.2-0.4c0-0.2,0.1-0.3,0.2-0.4c0.1-0.1,0.3-0.2,0.4-0.2c0.2,0,0.3,0.1,0.4,0.2c0.1,0.1,0.2,0.3,0.2,0.4
				c0,0.2-0.1,0.3-0.2,0.4C91.1,62.3,90.9,62.4,90.8,62.4z M90.8,61.4c-0.1,0-0.2,0-0.3,0.1c-0.1,0.1-0.1,0.2-0.1,0.3
				c0,0.1,0,0.2,0.1,0.3c0.1,0.1,0.2,0.1,0.3,0.1s0.2,0,0.3-0.1c0.1-0.1,0.1-0.2,0.1-0.3c0-0.1,0-0.2-0.1-0.3
				C91,61.4,90.9,61.4,90.8,61.4z"/>
		</g>
	</g>
	<g>
		<g>
			<path d="M85.1,61.2h-1v-13c0-18.5-15-33.5-33.5-33.5C34.2,14.7,20,27,17.5,43.2l-1-0.1C19,26.3,33.7,13.7,50.6,13.7
				c19,0,34.5,15.5,34.5,34.5V61.2z"/>
		</g>
	</g>
	<g>
		<g>
			<path d="M50.6,109.3c-19.3,0-34.5-14.5-34.5-33.1h1c0,18,14.7,32.1,33.5,32.1c18.5,0,33.5-15,33.5-33.5V64.4h1v10.4
				C85.1,93.8,69.6,109.3,50.6,109.3z"/>
		</g>
	</g>
	<g>
		<g>
			<path class="st9" d="M35.2,53.1C35.2,53.1,35.2,53.1,35.2,53.1L35.2,53.1c-0.6-0.1-5-0.9-5.4-9l0-1.6c0-4.5,2-7.3,6.2-8.6
				c2.1-4.8,10.2-9,18.2-7.5c7.1,1.4,13.6,6.2,16,11.8c0.3,0.6,0.5,1.3,0.7,2.1l0.1,0.2c0,0.1,0,0.1,0,0.2c0.1,0.7,0.1,1.2,0.1,1.8
				v4.2c0,0.1-0.1,5.4-5.3,6.4l-0.1,0h-0.5l0-0.5c0-1.5-0.2-3.6-0.7-5.5c-1.2,1.4-2.6,2.6-2.7,2.8c-0.3,0.3-0.8,0.3-1.2,0.1
				c-0.4-0.2-0.6-0.6-0.5-1c0.3-1.6-0.1-2.6-0.5-3.2c-3.1,2.8-7.6,3.2-10.1,3.2c-1.6,0-2.6-0.2-2.6-0.2c-0.4-0.1-0.7-0.4-0.8-0.7
				c-0.1-0.4,0-0.8,0.4-1c1.7-1.2,1.7-3.2,1.6-4.3c-3.2,0.7-8.5,5.6-12.4,10.1C35.5,53,35.4,53.1,35.2,53.1z M50.7,27.1
				c-6.5,0-12.3,3.5-13.9,7.4l-0.1,0.2l-0.2,0.1c-3.9,1.1-5.7,3.6-5.7,7.7v1.6c0.3,6.4,3.3,7.7,4.2,7.9c2.7-3.1,9.2-9.9,13.4-10.4
				l0.5,0l0.1,0.4c0.2,1.2,0.5,4-1.9,5.8c0,0,1,0.1,2.4,0.1c2.4,0,6.9-0.4,9.7-3.3l0.4-0.4l0.4,0.4c0.6,0.6,1.6,2,1.1,4.4
				c0.1-0.1,1.9-1.7,3.2-3.4l0.6-0.8l0.3,0.9c0.6,1.8,0.9,4.3,1,6.1c3.8-1.1,3.9-5.1,3.9-5.3v-4.2c0-0.5,0-1-0.1-1.6
				c0,0,0-0.1,0-0.1l-0.1-0.3c-0.1-0.7-0.3-1.3-0.6-1.9C67,33.3,60.8,28.7,54,27.4C52.9,27.2,51.8,27.1,50.7,27.1z"/>
		</g>
	</g>
	<g>
		<g>
			<g>
				<path class="st9" d="M49.4,52.9c-0.2-0.2-0.4-0.3-0.6-0.3H38c-0.2,0-0.5,0.1-0.6,0.3c-0.2,0.2-0.2,0.4-0.2,0.6
					c0.1,1.3,0.6,5.8,2.2,6.9c1.2,0.8,3.2,0.9,4,0.9c0.8,0,2.9-0.1,4-0.9c1.5-1.1,2.1-5.6,2.2-6.9C49.7,53.3,49.6,53,49.4,52.9z
					 M46.9,59.4c-0.5,0.3-1.7,0.7-3.4,0.7c-1.7,0-3-0.3-3.4-0.7c-0.6-0.5-1.3-3.1-1.6-5.6h10.1C48.1,56.3,47.5,58.9,46.9,59.4z"/>
			</g>
		</g>
		<g>
			<g>
				<path class="st9" d="M64.2,52.9c-0.2-0.2-0.4-0.3-0.6-0.3H52.9c-0.2,0-0.5,0.1-0.6,0.3C52.1,53,52,53.3,52,53.5
					c0.1,1.3,0.6,5.8,2.2,6.9c1.2,0.8,3.2,0.9,4,0.9c0.8,0,2.9-0.1,4-0.9c1.5-1.1,2.1-5.6,2.2-6.9C64.5,53.3,64.4,53,64.2,52.9z
					 M61.7,59.4c-0.5,0.3-1.7,0.7-3.4,0.7c-1.7,0-3-0.3-3.4-0.7c-0.6-0.5-1.3-3.1-1.6-5.6h10.1C63,56.3,62.3,58.9,61.7,59.4z"/>
			</g>
		</g>
		<g>
			<g>
				<path class="st9" d="M53.2,55c0-0.4-0.3-0.7-0.7-0.7h-3.2c-0.4,0-0.7,0.3-0.7,0.7c0,0.4,0.3,0.7,0.7,0.7h3.2
					C52.8,55.6,53.2,55.3,53.2,55z"/>
			</g>
		</g>
	</g>
	<g>
		<g>
			<path d="M32,62.4c0.5,0.3,0.8,0.7,0.9,1c0.2,0.4,0.3,0.9,0.3,1.5v4.9c0,0.5,0.2,0.9,0.5,1.3c0.3,0.3,0.7,0.5,1.1,0.6
				c0.3,0,0.5,0.1,0.6,0.2c0.1,0.1,0.2,0.2,0.2,0.4c0,0.2-0.1,0.3-0.2,0.4c-0.1,0.1-0.3,0.2-0.5,0.2c-0.7,0-1.3-0.2-1.8-0.7
				c-0.6-0.6-1-1.4-1-2.3v-4.9c0-0.5-0.2-0.9-0.5-1.3S31,63.1,30.5,63c-0.3,0-0.4-0.1-0.5-0.2c-0.1-0.1-0.2-0.2-0.2-0.4
				c0-0.2,0-0.3,0.2-0.4c0.1-0.1,0.3-0.2,0.5-0.2c0.5,0,0.9-0.2,1.2-0.6s0.4-0.8,0.4-1.3v-4.9c0-0.9,0.3-1.6,0.8-2.1
				c0.5-0.6,1.2-0.9,2-0.9c0.2,0,0.4,0.1,0.5,0.2s0.2,0.2,0.2,0.4s-0.1,0.3-0.2,0.4c-0.1,0.1-0.3,0.2-0.6,0.2
				c-0.5,0-0.8,0.2-1.1,0.6c-0.3,0.3-0.4,0.8-0.4,1.3V60c0,0.6-0.1,1-0.3,1.4C32.8,61.7,32.5,62.1,32,62.4z"/>
		</g>
	</g>
	<g>
		<g>
			<path d="M2.9,47C1.3,47,0,45.7,0,44.1s1.3-2.9,2.9-2.9c1.6,0,2.9,1.3,2.9,2.9S4.5,47,2.9,47z M2.9,42.2C1.9,42.2,1,43,1,44.1
				C1,45.1,1.9,46,2.9,46s1.9-0.9,1.9-1.9C4.8,43,4,42.2,2.9,42.2z"/>
		</g>
	</g>
	<g>
		<g>
			<path d="M3.4,59.7l-1,0c0-0.2,0.1-4.4,8.7-4.6c1.5,0,2.7-0.5,3.5-1.5c1.8-2,1.6-5.5,1.6-5.5l1-0.1c0,0.2,0.3,3.9-1.8,6.3
				c-1,1.2-2.5,1.8-4.3,1.8C3.6,56.2,3.4,59.6,3.4,59.7z"/>
		</g>
	</g>
	<g>
		<g>
			<path d="M84.1,61.2c0-0.2-0.3-4.1,1.9-6.5c1-1.1,2.4-1.7,4-1.7c7.4-0.1,7.4-3.6,7.4-3.7h1c0,0.2-0.1,4.5-8.4,4.7
				c-1.4,0-2.5,0.5-3.3,1.4c-1.9,2-1.6,5.7-1.6,5.7L84.1,61.2z"/>
		</g>
	</g>
	<g>
		<g>
			<path d="M16.7,48.6c-1.6,0-2.9-1.3-2.9-2.9s1.3-2.9,2.9-2.9s2.9,1.3,2.9,2.9S18.3,48.6,16.7,48.6z M16.7,43.8
				c-1.1,0-1.9,0.9-1.9,1.9s0.9,1.9,1.9,1.9s1.9-0.9,1.9-1.9S17.8,43.8,16.7,43.8z"/>
		</g>
	</g>
	<g>
		<g>
			<path d="M16.7,76.7c-1.6,0-2.9-1.3-2.9-2.9s1.3-2.9,2.9-2.9s2.9,1.3,2.9,2.9S18.3,76.7,16.7,76.7z M16.7,71.9
				c-1.1,0-1.9,0.9-1.9,1.9c0,1.1,0.9,1.9,1.9,1.9s1.9-0.9,1.9-1.9C18.6,72.7,17.8,71.9,16.7,71.9z"/>
		</g>
	</g>
</g>
</svg>
